<svg width="20" height="20" viewBox="0 0 20 20" fill="none" xmlns="http://www.w3.org/2000/svg">
<g clip-path="url(#clip0_2175_539)">
<path d="M17.8162 18.5058L13.7236 17.2947L10.6372 19.1283L8.48388 19.1274L5.39571 17.2947L1.30491 18.5058L0.0605469 14.3311L1.30491 9.69786L0.0605469 5.78055L1.30491 0.925537L7.69712 4.72085H11.424L17.8162 0.925537L19.0605 5.78055L17.8162 9.69786L19.0605 14.3311L17.8162 18.5058Z" fill="#FF5C16"/>
<path d="M1.30566 0.925537L7.69787 4.72352L7.44365 7.33002L1.30566 0.925537Z" fill="#FF5C16"/>
<path d="M5.39648 14.333L8.20902 16.4622L5.39648 17.2948V14.333Z" fill="#FF5C16"/>
<path d="M7.98442 10.8128L7.44386 7.33179L3.98372 9.69874L3.98193 9.69785V9.69963L3.99264 12.136L5.39578 10.8128H5.39668H7.98442Z" fill="#FF5C16"/>
<path d="M17.816 0.925537L11.4238 4.72352L11.6772 7.33002L17.816 0.925537Z" fill="#FF5C16"/>
<path d="M13.7251 14.333L10.9126 16.4622L13.7251 17.2948V14.333Z" fill="#FF5C16"/>
<path d="M15.1393 9.69963H15.1402H15.1393V9.69785L15.1384 9.69874L11.6783 7.33179L11.1377 10.8128H13.7254L15.1295 12.136L15.1393 9.69963Z" fill="#FF5C16"/>
<path d="M5.39571 17.2948L1.30491 18.5059L0.0605469 14.333H5.39571V17.2948Z" fill="#FF5C16"/>
<path d="M7.9834 10.8118L8.76481 15.844L7.6819 13.046L3.99072 12.1359L5.39476 10.8118H7.98251H7.9834Z" fill="#FF5C16"/>
<path d="M13.7256 17.2948L17.8164 18.5059L19.0608 14.333H13.7256V17.2948Z" fill="#FF5C16"/>
<path d="M11.1379 10.8118L10.3564 15.844L11.4394 13.046L15.1305 12.1359L13.7256 10.8118H11.1379Z" fill="#FF5C16"/>
<path d="M0.0605469 14.331L1.30491 9.69775H3.98097L3.99078 12.1351L7.68196 13.0451L8.76487 15.8431L8.20825 16.4593L5.39571 14.3301H0.0605469V14.331Z" fill="#FF8D5D"/>
<path d="M19.0608 14.331L17.8164 9.69775H15.1403L15.1305 12.1351L11.4394 13.0451L10.3564 15.8431L10.9131 16.4593L13.7256 14.3301H19.0608V14.331Z" fill="#FF8D5D"/>
<path d="M11.424 4.72095H9.56061H7.69718L7.44385 7.32744L8.76493 15.8406H10.3563L11.6783 7.32744L11.424 4.72095Z" fill="#FF8D5D"/>
<path d="M1.30491 0.925537L0.0605469 5.78055L1.30491 9.69786H3.98097L7.4429 7.33002L1.30491 0.925537Z" fill="#661800"/>
<path d="M7.10504 11.5614H5.6318L4.82959 12.3427L7.67959 13.0451L7.10504 11.5603V11.5614Z" fill="#661800"/>
<path d="M17.8162 0.925537L19.0606 5.78055L17.8162 9.69786H15.1401L11.6782 7.33002L17.8162 0.925537Z" fill="#661800"/>
<path d="M12.0115 11.5614H13.4852L14.2865 12.3429L11.4365 13.0456L12.0115 11.5603V11.5614Z" fill="#661800"/>
<path d="M10.6365 17.4672L10.913 16.461L10.3564 15.8447H8.76414L8.20752 16.461L8.48405 17.4672" fill="#661800"/>
<path d="M10.6363 17.4673V19.129H8.48389V17.4673H10.6363Z" fill="#E7EBF6"/>
<path d="M5.39648 17.2931L8.48555 19.1284V17.4667L8.20902 16.4604L5.39648 17.2931Z" fill="#E7EBF6"/>
<path d="M13.7253 17.2931L10.6362 19.1284V17.4667L10.9128 16.4604L13.7253 17.2931Z" fill="#E7EBF6"/>
</g>
<defs>
<clipPath id="clip0_2175_539">
<rect width="19" height="19" fill="white" transform="translate(0.0605469 0.527344)"/>
</clipPath>
</defs>
</svg>
