<svg xmlns="http://www.w3.org/2000/svg" fill="none" viewBox="0.06 0.53 19 19">
  <g clip-path="url(#a)">
    <path fill="#FF5C16" d="m17.82 18.5-4.1-1.2-3.08 1.83H8.48L5.4 17.29l-4.1 1.22-1.24-4.18L1.3 9.7.06 5.78 1.3.93l6.4 3.8h3.72l6.4-3.8 1.24 4.85-1.24 3.92 1.24 4.63-1.24 4.18Z"/>
    <path fill="#FF5C16" d="m1.3.93 6.4 3.8-.26 2.6L1.31.93Zm4.1 13.4 2.8 2.13-2.8.83v-2.96Zm2.58-3.52-.54-3.48L3.98 9.7 4 12.14l1.4-1.33H8ZM17.82.93l-6.4 3.8.26 2.6 6.14-6.4Zm-4.09 13.4-2.82 2.13 2.82.83v-2.96Z"/>
    <path fill="#FF5C16" d="m15.14 9.7-3.46-2.37-.54 3.48h2.59l1.4 1.33V9.7ZM5.4 17.3l-4.1 1.2-1.24-4.17H5.4v2.96Zm2.58-6.49.78 5.03-1.08-2.8-3.69-.9 1.4-1.33H8Zm5.75 6.49 4.09 1.2 1.24-4.17h-5.33v2.96Z"/>
    <path fill="#FF5C16" d="m11.14 10.81-.78 5.03 1.08-2.8 3.69-.9-1.4-1.33h-2.6Z"/>
    <path fill="#FF8D5D" d="M.06 14.33 1.3 9.7h2.68L4 12.14l3.7.9 1.07 2.8-.55.62-2.81-2.13H.06Zm19 0L17.82 9.7h-2.68l-.01 2.44-3.7.9-1.07 2.8.55.62 2.82-2.13h5.33Z"/>
    <path fill="#FF8D5D" d="M11.42 4.72H7.7l-.26 2.6 1.32 8.52h1.6l1.32-8.51-.26-2.6Z"/>
    <path fill="#661800" d="M1.3.93.06 5.78 1.3 9.7h2.68l3.46-2.37L1.3.93Zm5.8 10.63H5.64l-.8.78 2.85.7-.57-1.48ZM17.82.93l1.24 4.85-1.24 3.92h-2.68l-3.46-2.37 6.14-6.4Zm-5.81 10.63h1.48l.8.78-2.85.7.57-1.48Zm-1.37 5.91.27-1-.55-.63h-1.6l-.55.62.27 1"/>
    <path fill="#E7EBF6" d="M10.64 17.47v1.66H8.48v-1.66h2.16Z"/>
    <path fill="#E7EBF6" d="m5.4 17.3 3.09 1.83v-1.66l-.28-1.01-2.81.83Zm8.33 0-3.1 1.83v-1.66l.28-1.01 2.82.83Z"/>
  </g>
  <defs>
    <clipPath id="a">
      <path fill="#fff" d="M.06.53h19v19h-19z"/>
    </clipPath>
  </defs>
</svg>
