<!DOCTYPE svg PUBLIC "-//W3C//DTD SVG 1.1//EN" "http://www.w3.org/Graphics/SVG/1.1/DTD/svg11.dtd"> <svg width="521px" height="521px" version="1.1" baseProfile="full" xmlns="http://www.w3.org/2000/svg" xmlns:xlink="http://www.w3.org/1999/xlink" xmlns:ev="http://www.w3.org/2001/xml-events"><polygon fill="rgb(247,132,25)" stroke="rgb(247,132,25)" points="295.711333937943,53.17756366729736 359.86003659665585,53.475858718156815 346.20401680469513,86.61972530186176"></polygon><polygon fill="rgb(247,132,25)" stroke="rgb(247,132,25)" points="346.20401680469513,86.61972530186176 310.40566489100456,86.49535411596298 295.711333937943,53.17756366729736"></polygon><polygon fill="rgb(225,119,25)" stroke="rgb(225,119,25)" points="435.9955934435129,19.20757359266281 346.20401680469513,86.61972530186176 359.86003659665585,53.475858718156815"></polygon><polygon fill="rgb(228,119,25)" stroke="rgb(228,119,25)" points="310.40566489100456,86.49535411596298 220.32828830182552,17.93945136666298 295.711333937943,53.17756366729736"></polygon><polygon fill="rgb(119,57,0)" stroke="rgb(119,57,0)" points="399.51097808778286,115.88312350958586 442.46328867971897,95.64095704257488 440.31720258295536,105.1262739598751"></polygon><polygon fill="rgb(119,57,0)" stroke="rgb(119,57,0)" points="438.97235579788685,116.52460700273514 399.51097808778286,115.88312350958586 440.31720258295536,105.1262739598751"></polygon><polygon fill="rgb(119,57,0)" stroke="rgb(119,57,0)" points="433.3304078876972,133.02058269828558 382.09995180368423,118.81550576537848 399.51097808778286,115.88312350958586"></polygon><polygon fill="rgb(119,57,0)" stroke="rgb(119,57,0)" points="438.97235579788685,116.52460700273514 433.3304078876972,133.02058269828558 399.51097808778286,115.88312350958586"></polygon><polygon fill="rgb(119,57,0)" stroke="rgb(119,57,0)" points="442.46328867971897,95.64095704257488 399.51097808778286,115.88312350958586 397.8539591282606,63.931034833192825"></polygon><polygon fill="rgb(119,57,0)" stroke="rgb(119,57,0)" points="397.8539591282606,63.931034833192825 399.51097808778286,115.88312350958586 382.09995180368423,118.81550576537848"></polygon><polygon fill="rgb(119,57,0)" stroke="rgb(119,57,0)" points="255.93317233026028,115.5324143320322 215.04851438105106,104.48913410305977 212.86204032599926,94.91413104534149"></polygon><polygon fill="rgb(119,57,0)" stroke="rgb(119,57,0)" points="216.43688216805458,115.98534420877695 215.04851438105106,104.48913410305977 255.93317233026028,115.5324143320322"></polygon><polygon fill="rgb(119,57,0)" stroke="rgb(119,57,0)" points="222.152032032609,132.63267927616835 255.93317233026028,115.5324143320322 273.84512934833765,118.56249752640724"></polygon><polygon fill="rgb(119,57,0)" stroke="rgb(119,57,0)" points="216.43688216805458,115.98534420877695 255.93317233026028,115.5324143320322 222.152032032609,132.63267927616835"></polygon><polygon fill="rgb(225,119,25)" stroke="rgb(225,119,25)" points="365.3017186000943,216.95365113019943 367.8112890012562,217.23302540183067 381.4498257264495,223.98606468737125"></polygon><polygon fill="rgb(119,57,0)" stroke="rgb(119,57,0)" points="258.33820790052414,63.33313637971878 255.93317233026028,115.5324143320322 212.86204032599926,94.91413104534149"></polygon><polygon fill="rgb(119,57,0)" stroke="rgb(119,57,0)" points="273.84512934833765,118.56249752640724 255.93317233026028,115.5324143320322 258.33820790052414,63.33313637971878"></polygon><polygon fill="rgb(225,119,25)" stroke="rgb(225,119,25)" points="275.2171389386058,224.13390386104584 288.1429985165596,217.32477928698063 290.0583178922534,217.03955402970314"></polygon><polygon fill="rgb(119,57,0)" stroke="rgb(119,57,0)" points="447.79351338744164,99.04732403159142 440.31720258295536,105.1262739598751 442.46328867971897,95.64095704257488"></polygon><polygon fill="rgb(228,119,25)" stroke="rgb(228,119,25)" points="452.4201989918947,188.10414039343596 438.5590087622404,245.72110396623611 381.4498257264495,223.98606468737125"></polygon><polygon fill="rgb(119,57,0)" stroke="rgb(119,57,0)" points="438.97235579788685,116.52460700273514 440.31720258295536,105.1262739598751 446.36679753661156,109.26569762825966"></polygon><polygon fill="rgb(119,57,0)" stroke="rgb(119,57,0)" points="382.09995180368423,118.81550576537848 346.20401680469513,86.61972530186176 397.8539591282606,63.931034833192825"></polygon><polygon fill="rgb(119,57,0)" stroke="rgb(119,57,0)" points="397.8539591282606,63.931034833192825 449.0102567523718,55.91308015584946 442.46328867971897,95.64095704257488"></polygon><polygon fill="rgb(119,57,0)" stroke="rgb(119,57,0)" points="258.33820790052414,63.33313637971878 310.40566489100456,86.49535411596298 273.84512934833765,118.56249752640724"></polygon><polygon fill="rgb(119,57,0)" stroke="rgb(119,57,0)" points="433.3304078876972,133.02058269828558 438.97235579788685,116.52460700273514 443.92351150512695,119.67506999522448"></polygon><polygon fill="rgb(119,57,0)" stroke="rgb(119,57,0)" points="207.52034731209278,98.3156580477953 212.86204032599926,94.91413104534149 215.04851438105106,104.48913410305977"></polygon><polygon fill="rgb(228,119,25)" stroke="rgb(228,119,25)" points="275.2171389386058,224.13390386104584 216.3117165863514,246.2026323080063 202.41758547723293,188.13408380746841"></polygon><polygon fill="rgb(119,57,0)" stroke="rgb(119,57,0)" points="216.43688216805458,115.98534420877695 208.9883978664875,108.62908385694027 215.04851438105106,104.48913410305977"></polygon><polygon fill="rgb(247,132,25)" stroke="rgb(247,132,25)" points="398.4492227807641,136.17979357764125 433.3304078876972,133.02058269828558 452.4201989918947,188.10414039343596"></polygon><polygon fill="rgb(119,57,0)" stroke="rgb(119,57,0)" points="212.86204032599926,94.91413104534149 206.6002182662487,54.80326849222183 258.33820790052414,63.33313637971878"></polygon><polygon fill="rgb(119,57,0)" stroke="rgb(119,57,0)" points="222.152032032609,132.63267927616835 211.47766448557377,119.13771254569292 216.43688216805458,115.98534420877695"></polygon><polygon fill="rgb(228,119,25)" stroke="rgb(228,119,25)" points="381.4498257264495,223.98606468737125 407.11243007332087,180.7882811203599 452.4201989918947,188.10414039343596"></polygon><polygon fill="rgb(247,132,25)" stroke="rgb(247,132,25)" points="398.4492227807641,136.17979357764125 452.4201989918947,188.10414039343596 407.11243007332087,180.7882811203599"></polygon><polygon fill="rgb(247,132,25)" stroke="rgb(247,132,25)" points="433.3304078876972,133.02058269828558 398.4492227807641,136.17979357764125 382.09995180368423,118.81550576537848"></polygon><polygon fill="rgb(247,132,25)" stroke="rgb(247,132,25)" points="258.521915525198,135.9387675076723 202.41758547723293,188.13408380746841 222.152032032609,132.63267927616835"></polygon><polygon fill="rgb(247,132,25)" stroke="rgb(247,132,25)" points="222.152032032609,132.63267927616835 273.84512934833765,118.56249752640724 258.521915525198,135.9387675076723"></polygon><polygon fill="rgb(228,119,25)" stroke="rgb(228,119,25)" points="202.41758547723293,188.13408380746841 249.84498042613268,180.76625872403383 275.2171389386058,224.13390386104584"></polygon><polygon fill="rgb(247,132,25)" stroke="rgb(247,132,25)" points="249.84498042613268,180.76625872403383 202.41758547723293,188.13408380746841 258.521915525198,135.9387675076723"></polygon><polygon fill="rgb(228,119,25)" stroke="rgb(228,119,25)" points="382.09995180368423,118.81550576537848 398.4492227807641,136.17979357764125 343.8285865448415,136.20322382450104"></polygon><polygon fill="rgb(228,119,25)" stroke="rgb(228,119,25)" points="343.8285865448415,136.20322382450104 346.20401680469513,86.61972530186176 382.09995180368423,118.81550576537848"></polygon><polygon fill="rgb(119,57,0)" stroke="rgb(119,57,0)" points="435.9955934435129,19.20757359266281 449.0102567523718,55.91308015584946 397.8539591282606,63.931034833192825"></polygon><polygon fill="rgb(119,57,0)" stroke="rgb(119,57,0)" points="397.8539591282606,63.931034833192825 346.20401680469513,86.61972530186176 435.9955934435129,19.20757359266281"></polygon><polygon fill="rgb(228,119,25)" stroke="rgb(228,119,25)" points="273.84512934833765,118.56249752640724 310.40566489100456,86.49535411596298 313.92797579057515,136.1518447138369"></polygon><polygon fill="rgb(228,119,25)" stroke="rgb(228,119,25)" points="313.92797579057515,136.1518447138369 258.521915525198,135.9387675076723 273.84512934833765,118.56249752640724"></polygon><polygon fill="rgb(119,57,0)" stroke="rgb(119,57,0)" points="220.32828830182552,17.93945136666298 310.40566489100456,86.49535411596298 258.33820790052414,63.33313637971878"></polygon><polygon fill="rgb(119,57,0)" stroke="rgb(119,57,0)" points="258.33820790052414,63.33313637971878 206.6002182662487,54.80326849222183 220.32828830182552,17.93945136666298"></polygon><polygon fill="rgb(247,132,25)" stroke="rgb(247,132,25)" points="310.40566489100456,86.49535411596298 346.20401680469513,86.61972530186176 343.8285865448415,136.20322382450104"></polygon><polygon fill="rgb(247,132,25)" stroke="rgb(247,132,25)" points="343.8285865448415,136.20322382450104 313.92797579057515,136.1518447138369 310.40566489100456,86.49535411596298"></polygon><polygon fill="rgb(205,98,0)" stroke="rgb(205,98,0)" points="381.4498257264495,223.98606468737125 376.4639771729708,179.1247919201851 407.11243007332087,180.7882811203599"></polygon><polygon fill="rgb(205,98,0)" stroke="rgb(205,98,0)" points="275.2171389386058,224.13390386104584 249.84498042613268,180.76625872403383 281.1840010434389,179.1058459803462"></polygon><polygon fill="rgb(205,98,0)" stroke="rgb(205,98,0)" points="343.8285865448415,136.20322382450104 398.4492227807641,136.17979357764125 376.83151442557573,157.12241200357676"></polygon><polygon fill="rgb(228,116,36)" stroke="rgb(228,116,36)" points="398.4492227807641,136.17979357764125 376.4639771729708,179.1247919201851 376.83151442557573,157.12241200357676"></polygon><polygon fill="rgb(247,132,25)" stroke="rgb(247,132,25)" points="407.11243007332087,180.7882811203599 376.4639771729708,179.1247919201851 398.4492227807641,136.17979357764125"></polygon><polygon fill="rgb(205,98,0)" stroke="rgb(205,98,0)" points="280.65206684172153,157.02827129140496 258.521915525198,135.9387675076723 313.92797579057515,136.1518447138369"></polygon><polygon fill="rgb(228,116,36)" stroke="rgb(228,116,36)" points="258.521915525198,135.9387675076723 280.65206684172153,157.02827129140496 281.1840010434389,179.1058459803462"></polygon><polygon fill="rgb(247,132,25)" stroke="rgb(247,132,25)" points="258.521915525198,135.9387675076723 281.1840010434389,179.1058459803462 249.84498042613268,180.76625872403383"></polygon><polygon fill="rgb(192,172,157)" stroke="rgb(192,172,157)" points="351.1681463383138,224.9334211498499 381.4498257264495,223.98606468737125 370.82083851099014,229.98181991279125"></polygon><polygon fill="rgb(192,172,157)" stroke="rgb(192,172,157)" points="286.57787485048175,230.11691409349442 275.2171389386058,224.13390386104584 308.56288499198854,224.99407652020454"></polygon><polygon fill="rgb(205,98,0)" stroke="rgb(205,98,0)" points="376.83151442557573,157.12241200357676 357.1131869405508,147.8810026179999 343.8285865448415,136.20322382450104"></polygon><polygon fill="rgb(205,98,0)" stroke="rgb(205,98,0)" points="313.92797579057515,136.1518447138369 300.5296768993139,147.80713392421603 280.65206684172153,157.02827129140496"></polygon><polygon fill="rgb(214,194,178)" stroke="rgb(214,194,178)" points="351.6398841328919,212.339218005538 381.4498257264495,223.98606468737125 351.1681463383138,224.9334211498499"></polygon><polygon fill="rgb(214,194,178)" stroke="rgb(214,194,178)" points="381.4498257264495,223.98606468737125 351.6398841328919,212.339218005538 348.86655976995826,189.25178675353527"></polygon><polygon fill="rgb(228,119,25)" stroke="rgb(228,119,25)" points="348.86655976995826,189.25178675353527 376.4639771729708,179.1247919201851 381.4498257264495,223.98606468737125"></polygon><polygon fill="rgb(36,51,67)" stroke="rgb(36,51,67)" points="349.19735208153725,163.67149022966623 357.1131869405508,147.8810026179999 376.83151442557573,157.12241200357676"></polygon><polygon fill="rgb(247,132,25)" stroke="rgb(247,132,25)" points="376.4639771729708,179.1247919201851 349.19735208153725,163.67149022966623 376.83151442557573,157.12241200357676"></polygon><polygon fill="rgb(214,194,178)" stroke="rgb(214,194,178)" points="308.66590332239866,212.3812362253666 308.56288499198854,224.99407652020454 275.2171389386058,224.13390386104584"></polygon><polygon fill="rgb(214,194,178)" stroke="rgb(214,194,178)" points="275.2171389386058,224.13390386104584 311.51120350696146,189.2577635422349 308.66590332239866,212.3812362253666"></polygon><polygon fill="rgb(228,119,25)" stroke="rgb(228,119,25)" points="311.51120350696146,189.2577635422349 275.2171389386058,224.13390386104584 281.1840010434389,179.1058459803462"></polygon><polygon fill="rgb(205,98,0)" stroke="rgb(205,98,0)" points="357.1131869405508,147.8810026179999 349.19735208153725,163.67149022966623 343.8285865448415,136.20322382450104"></polygon><polygon fill="rgb(36,51,67)" stroke="rgb(36,51,67)" points="308.7639060989022,163.64132951945066 280.65206684172153,157.02827129140496 300.5296768993139,147.80713392421603"></polygon><polygon fill="rgb(247,132,25)" stroke="rgb(247,132,25)" points="281.1840010434389,179.1058459803462 280.65206684172153,157.02827129140496 308.7639060989022,163.64132951945066"></polygon><polygon fill="rgb(205,98,0)" stroke="rgb(205,98,0)" points="300.5296768993139,147.80713392421603 313.92797579057515,136.1518447138369 308.7639060989022,163.64132951945066"></polygon><polygon fill="rgb(225,119,25)" stroke="rgb(225,119,25)" points="349.19735208153725,163.67149022966623 342.8833589889109,151.82996575301513 343.8285865448415,136.20322382450104"></polygon><polygon fill="rgb(247,132,25)" stroke="rgb(247,132,25)" points="315.32972489483654,151.7978655314073 313.92797579057515,136.1518447138369 343.8285865448415,136.20322382450104"></polygon><polygon fill="rgb(247,132,25)" stroke="rgb(247,132,25)" points="343.8285865448415,136.20322382450104 342.8833589889109,151.82996575301513 315.32972489483654,151.7978655314073"></polygon><polygon fill="rgb(228,116,36)" stroke="rgb(228,116,36)" points="308.7639060989022,163.64132951945066 313.92797579057515,136.1518447138369 315.32972489483654,151.7978655314073"></polygon><polygon fill="rgb(192,172,157)" stroke="rgb(192,172,157)" points="370.82083851099014,229.98181991279125 349.3996286019683,234.22891727089882 351.1681463383138,224.9334211498499"></polygon><polygon fill="rgb(192,172,157)" stroke="rgb(192,172,157)" points="308.56288499198854,224.99407652020454 310.47701239585876,234.29714369773865 286.57787485048175,230.11691409349442"></polygon><polygon fill="rgb(247,132,25)" stroke="rgb(247,132,25)" points="349.19735208153725,163.67149022966623 376.4639771729708,179.1247919201851 348.86655976995826,189.25178675353527"></polygon><polygon fill="rgb(247,132,25)" stroke="rgb(247,132,25)" points="311.51120350696146,189.2577635422349 281.1840010434389,179.1058459803462 308.7639060989022,163.64132951945066"></polygon><polygon fill="rgb(228,116,36)" stroke="rgb(228,116,36)" points="342.8833589889109,151.82996575301513 349.19735208153725,163.67149022966623 344.0446909144521,185.89495871961117"></polygon><polygon fill="rgb(247,132,25)" stroke="rgb(247,132,25)" points="348.86655976995826,189.25178675353527 344.0446909144521,185.89495871961117 349.19735208153725,163.67149022966623"></polygon><polygon fill="rgb(228,116,36)" stroke="rgb(228,116,36)" points="315.32972489483654,151.7978655314073 316.34008754976094,185.89609552174807 308.7639060989022,163.64132951945066"></polygon><polygon fill="rgb(247,132,25)" stroke="rgb(247,132,25)" points="308.7639060989022,163.64132951945066 316.34008754976094,185.89609552174807 311.51120350696146,189.2577635422349"></polygon><polygon fill="rgb(247,132,25)" stroke="rgb(247,132,25)" points="315.32972489483654,151.7978655314073 342.8833589889109,151.82996575301513 344.0446909144521,185.89495871961117"></polygon><polygon fill="rgb(247,132,25)" stroke="rgb(247,132,25)" points="344.0446909144521,185.89495871961117 316.34008754976094,185.89609552174807 315.32972489483654,151.7978655314073"></polygon><polygon fill="rgb(192,172,157)" stroke="rgb(192,172,157)" points="351.6398841328919,212.339218005538 351.1681463383138,224.9334211498499 349.3996286019683,234.22891727089882"></polygon><polygon fill="rgb(192,172,157)" stroke="rgb(192,172,157)" points="310.47701239585876,234.29714369773865 308.56288499198854,224.99407652020454 308.66590332239866,212.3812362253666"></polygon><polygon fill="rgb(192,172,157)" stroke="rgb(192,172,157)" points="349.27703484892845,208.62942777574062 349.3996286019683,234.22891727089882 310.47701239585876,234.29714369773865"></polygon><polygon fill="rgb(192,172,157)" stroke="rgb(192,172,157)" points="349.3996286019683,234.22891727089882 349.27703484892845,208.62942777574062 351.6398841328919,212.339218005538"></polygon><polygon fill="rgb(192,172,157)" stroke="rgb(192,172,157)" points="308.66590332239866,212.3812362253666 311.3081010244787,208.66156016290188 310.47701239585876,234.29714369773865"></polygon><polygon fill="rgb(192,172,157)" stroke="rgb(192,172,157)" points="310.47701239585876,234.29714369773865 311.3081010244787,208.66156016290188 349.27703484892845,208.62942777574062"></polygon><polygon fill="rgb(0,0,0)" stroke="rgb(0,0,0)" points="348.86655976995826,189.25178675353527 351.6398841328919,212.339218005538 349.27703484892845,208.62942777574062"></polygon><polygon fill="rgb(0,0,0)" stroke="rgb(0,0,0)" points="311.3081010244787,208.66156016290188 308.66590332239866,212.3812362253666 311.51120350696146,189.2577635422349"></polygon><polygon fill="rgb(0,0,0)" stroke="rgb(0,0,0)" points="344.58994299173355,187.73873284459114 344.0446909144521,185.89495871961117 348.86655976995826,189.25178675353527"></polygon><polygon fill="rgb(0,0,0)" stroke="rgb(0,0,0)" points="316.3512996491045,187.74173610657454 316.34008754976094,185.89609552174807 344.0446909144521,185.89495871961117"></polygon><polygon fill="rgb(0,0,0)" stroke="rgb(0,0,0)" points="344.0446909144521,185.89495871961117 344.58994299173355,187.73873284459114 316.3512996491045,187.74173610657454"></polygon><polygon fill="rgb(0,0,0)" stroke="rgb(0,0,0)" points="349.27703484892845,208.62942777574062 347.6798353064805,191.2211626470089 348.86655976995826,189.25178675353527"></polygon><polygon fill="rgb(0,0,0)" stroke="rgb(0,0,0)" points="348.86655976995826,189.25178675353527 347.6798353064805,191.2211626470089 344.58994299173355,187.73873284459114"></polygon><polygon fill="rgb(0,0,0)" stroke="rgb(0,0,0)" points="311.51120350696146,189.2577635422349 316.34008754976094,185.89609552174807 316.3512996491045,187.74173610657454"></polygon><polygon fill="rgb(0,0,0)" stroke="rgb(0,0,0)" points="311.51120350696146,189.2577635422349 313.259235676378,191.22906994074583 311.3081010244787,208.66156016290188"></polygon><polygon fill="rgb(0,0,0)" stroke="rgb(0,0,0)" points="316.3512996491045,187.74173610657454 313.259235676378,191.22906994074583 311.51120350696146,189.2577635422349"></polygon><polygon fill="rgb(0,0,0)" stroke="rgb(0,0,0)" points="313.259235676378,191.22906994074583 347.6798353064805,191.2211626470089 349.27703484892845,208.62942777574062"></polygon><polygon fill="rgb(0,0,0)" stroke="rgb(0,0,0)" points="349.27703484892845,208.62942777574062 311.3081010244787,208.66156016290188 313.259235676378,191.22906994074583"></polygon><polygon fill="rgb(0,0,0)" stroke="rgb(0,0,0)" points="344.58994299173355,187.73873284459114 347.6798353064805,191.2211626470089 313.259235676378,191.22906994074583"></polygon><polygon fill="rgb(0,0,0)" stroke="rgb(0,0,0)" points="313.259235676378,191.22906994074583 316.3512996491045,187.74173610657454 344.58994299173355,187.73873284459114"></polygon></svg>