<svg width="48" height="48" viewBox="0 0 48 48" fill="none" xmlns="http://www.w3.org/2000/svg">
  <rect width="48" height="48" rx="24" fill="#24272A"/>
  <path d="M34.4644 15.1028L25.5133 10.3775C24.571 9.87418 23.429 9.87418 22.4867 10.3775L13.5356 15.1028C12.8789 15.4523 12.4792 16.1234 12.4792 16.8923C12.4792 17.6472 12.8789 18.3323 13.5356 18.6818L22.4867 23.4071C22.9578 23.6588 23.4861 23.7846 24 23.7846C24.5139 23.7846 25.0422 23.6588 25.5133 23.4071L34.4644 18.6818C35.1211 18.3323 35.5208 17.6612 35.5208 16.8923C35.5208 16.1234 35.1211 15.4523 34.4644 15.1028Z" fill="white"/>
  <path d="M21.3115 24.658L13.1762 20.3385C12.5327 20.029 11.573 20.2699 10.9724 20.6356C10.3575 21.0153 10 21.6482 10 22.3514V30.101C10 31.4371 10.7579 32.7286 11.9734 33.3333L20.3105 37.7846C20.5965 37.9253 20.9111 37.9956 21.2257 37.9956C21.5975 37.9956 21.9693 37.8971 22.2982 37.7002C22.9131 37.3346 23.2706 36.2612 23.2706 35.558V27.8085C23.2849 26.4583 22.527 25.2487 21.3115 24.658Z" fill="white"/>
  <path d="M37.0276 20.6412C36.4126 20.2756 35.4473 20.0151 34.818 20.3385L26.7026 24.6623C25.4871 25.2669 24.7292 26.4619 24.7292 27.8117V35.5587C24.7292 36.2617 25.0867 37.3392 25.7016 37.7047C26.0305 37.9016 26.4023 38 26.7741 38C27.0887 38 27.4034 37.9297 27.6894 37.7891L36.0265 33.3333C37.2421 32.7288 38 31.4532 38 30.1034V22.3565C38 21.6535 37.6425 21.0208 37.0276 20.6412Z" fill="white"/>
</svg>
