<svg width="212" height="26" viewBox="0 0 212 26" fill="none" xmlns="http://www.w3.org/2000/svg">
<path d="M25.9386 1L15.6895 8.53217L17.5953 4.09321L25.9386 1Z" fill="#E17726" stroke="#E17726" stroke-width="0.349318" stroke-linecap="round" stroke-linejoin="round"/>
<path d="M2.29761 1L12.4555 8.60247L10.6409 4.09321L2.29761 1Z" fill="#E27625" stroke="#E27625" stroke-width="0.349318" stroke-linecap="round" stroke-linejoin="round"/>
<path d="M22.2485 18.4646L19.5215 22.6023L25.3608 24.1991L27.0335 18.555L22.2485 18.4646Z" fill="#E27625" stroke="#E27625" stroke-width="0.349318" stroke-linecap="round" stroke-linejoin="round"/>
<path d="M1.21289 18.555L2.87546 24.1991L8.70459 22.6023L5.98771 18.4646L1.21289 18.555Z" fill="#E27625" stroke="#E27625" stroke-width="0.349318" stroke-linecap="round" stroke-linejoin="round"/>
<path d="M8.39033 11.4746L6.76831 13.905L12.5468 14.1661L12.3541 7.98975L8.39033 11.4746Z" fill="#E27625" stroke="#E27625" stroke-width="0.349318" stroke-linecap="round" stroke-linejoin="round"/>
<path d="M19.8459 11.4746L15.8212 7.91943L15.6895 14.1661L21.4679 13.905L19.8459 11.4746Z" fill="#E27625" stroke="#E27625" stroke-width="0.349318" stroke-linecap="round" stroke-linejoin="round"/>
<path d="M8.70459 22.6023L12.2021 20.9252L9.1912 18.5952L8.70459 22.6023Z" fill="#E27625" stroke="#E27625" stroke-width="0.349318" stroke-linecap="round" stroke-linejoin="round"/>
<path d="M16.0339 20.9252L19.5213 22.6023L19.0448 18.5952L16.0339 20.9252Z" fill="#E27625" stroke="#E27625" stroke-width="0.349318" stroke-linecap="round" stroke-linejoin="round"/>
<path d="M19.5213 22.6022L16.0339 20.925L16.3178 23.1747L16.2874 24.1287L19.5213 22.6022Z" fill="#D5BFB2" stroke="#D5BFB2" stroke-width="0.349318" stroke-linecap="round" stroke-linejoin="round"/>
<path d="M8.70435 22.6022L11.9484 24.1287L11.9281 23.1747L12.2018 20.925L8.70435 22.6022Z" fill="#D5BFB2" stroke="#D5BFB2" stroke-width="0.349318" stroke-linecap="round" stroke-linejoin="round"/>
<path d="M12.0095 17.1089L9.11011 16.2653L11.1579 15.3313L12.0095 17.1089Z" fill="#233447" stroke="#233447" stroke-width="0.349318" stroke-linecap="round" stroke-linejoin="round"/>
<path d="M16.2266 17.1089L17.0781 15.3313L19.1361 16.2653L16.2266 17.1089Z" fill="#233447" stroke="#233447" stroke-width="0.349318" stroke-linecap="round" stroke-linejoin="round"/>
<path d="M8.70492 22.6023L9.2118 18.4646L5.98804 18.555L8.70492 22.6023Z" fill="#CC6228" stroke="#CC6228" stroke-width="0.349318" stroke-linecap="round" stroke-linejoin="round"/>
<path d="M19.0249 18.4646L19.5216 22.6023L22.2487 18.555L19.0249 18.4646Z" fill="#CC6228" stroke="#CC6228" stroke-width="0.349318" stroke-linecap="round" stroke-linejoin="round"/>
<path d="M21.4681 13.905L15.6897 14.1661L16.227 17.1087L17.0786 15.3311L19.1365 16.2651L21.4681 13.905Z" fill="#CC6228" stroke="#CC6228" stroke-width="0.349318" stroke-linecap="round" stroke-linejoin="round"/>
<path d="M9.11034 16.2651L11.1581 15.3311L12.0097 17.1087L12.547 14.1661L6.76855 13.905L9.11034 16.2651Z" fill="#CC6228" stroke="#CC6228" stroke-width="0.349318" stroke-linecap="round" stroke-linejoin="round"/>
<path d="M6.76831 13.905L9.1912 18.5951L9.1101 16.2651L6.76831 13.905Z" fill="#E27525" stroke="#E27525" stroke-width="0.349318" stroke-linecap="round" stroke-linejoin="round"/>
<path d="M19.1362 16.2651L19.0449 18.5951L21.4678 13.905L19.1362 16.2651Z" fill="#E27525" stroke="#E27525" stroke-width="0.349318" stroke-linecap="round" stroke-linejoin="round"/>
<path d="M12.5466 14.1663L12.0093 17.1088L12.6885 20.5837L12.8406 16.0041L12.5466 14.1663Z" fill="#E27525" stroke="#E27525" stroke-width="0.349318" stroke-linecap="round" stroke-linejoin="round"/>
<path d="M15.6891 14.1663L15.4053 15.9941L15.5472 20.5837L16.2264 17.1088L15.6891 14.1663Z" fill="#E27525" stroke="#E27525" stroke-width="0.349318" stroke-linecap="round" stroke-linejoin="round"/>
<path d="M16.2268 17.1087L15.5476 20.5836L16.0342 20.925L19.0451 18.5951L19.1363 16.2651L16.2268 17.1087Z" fill="#F5841F" stroke="#F5841F" stroke-width="0.349318" stroke-linecap="round" stroke-linejoin="round"/>
<path d="M9.11011 16.2651L9.19121 18.5951L12.2021 20.925L12.6887 20.5836L12.0095 17.1087L9.11011 16.2651Z" fill="#F5841F" stroke="#F5841F" stroke-width="0.349318" stroke-linecap="round" stroke-linejoin="round"/>
<path d="M16.2873 24.1288L16.3177 23.1747L16.0541 22.9538H12.1815L11.9281 23.1747L11.9484 24.1288L8.70435 22.6023L9.83976 23.5262L12.141 25.103H16.0845L18.3959 23.5262L19.5212 22.6023L16.2873 24.1288Z" fill="#C0AC9D" stroke="#C0AC9D" stroke-width="0.349318" stroke-linecap="round" stroke-linejoin="round"/>
<path d="M16.0342 20.925L15.5476 20.5835H12.6888L12.2022 20.925L11.9285 23.1746L12.1819 22.9536H16.0545L16.3181 23.1746L16.0342 20.925Z" fill="black"/>
<path d="M26.3743 9.02427L27.236 4.86651L25.9384 1L16.0339 8.2811L19.8457 11.4747L25.2288 13.0314L26.4149 11.6555L25.8978 11.2839L26.719 10.5407L26.0905 10.0587L26.9116 9.43603L26.3743 9.02427Z" fill="#763E1A" stroke="#763E1A" stroke-width="0.349318" stroke-linecap="round" stroke-linejoin="round"/>
<path d="M1 4.86651L1.87184 9.02427L1.31427 9.43603L2.14555 10.0587L1.51702 10.5407L2.33817 11.2839L1.82115 11.6555L3.00725 13.0314L8.39032 11.4747L12.2021 8.2811L2.29761 1L1 4.86651Z" fill="#763E1A" stroke="#763E1A" stroke-width="0.349318" stroke-linecap="round" stroke-linejoin="round"/>
<path d="M25.2291 13.0313L19.846 11.4746L21.4681 13.905L19.0452 18.595L22.2487 18.5548H27.0336L25.2291 13.0313Z" fill="#F5841F" stroke="#F5841F" stroke-width="0.349318" stroke-linecap="round" stroke-linejoin="round"/>
<path d="M8.39032 11.4746L3.00725 13.0313L1.21289 18.5548H5.98771L9.1912 18.595L6.7683 13.905L8.39032 11.4746Z" fill="#F5841F" stroke="#F5841F" stroke-width="0.349318" stroke-linecap="round" stroke-linejoin="round"/>
<path d="M15.6892 14.1663L16.0338 8.28115L17.595 4.09326H10.6406L12.2018 8.28115L12.5465 14.1663L12.6783 16.0142L12.6884 20.5837H15.5472L15.5574 16.0142L15.6892 14.1663Z" fill="#F5841F" stroke="#F5841F" stroke-width="0.349318" stroke-linecap="round" stroke-linejoin="round"/>
<path d="M44.6145 19.2118C42.7977 19.2118 40.8207 18.0719 40.8207 16.0771V15.703H42.6552C42.673 16.8429 43.4745 17.5376 44.6145 17.5376C45.6475 17.5376 46.6093 17.0389 46.6093 15.8633C46.6093 14.5453 45.2378 14.0288 43.8664 13.3876C42.4949 12.7286 41.1057 11.9627 41.1057 10.1638C41.1057 8.07986 42.8333 6.81527 44.8282 6.81527C46.4846 6.81527 48.3192 7.97299 48.3192 9.78973V10.0213H46.4846C46.5559 9.00604 45.7544 8.48951 44.7926 8.48951C43.8308 8.48951 42.9402 8.86355 42.9402 10.0035C42.9402 10.8762 43.6348 11.3393 44.3295 11.6599L45.3981 12.1586C47.0368 12.9423 48.4438 13.7972 48.4438 15.8455C48.4438 17.965 46.6093 19.2118 44.6145 19.2118ZM58.8763 15.7386V6.97557H60.5505V19.0515H58.5557L54.2454 9.91441H54.2098V19.0515H52.5355V6.97557H54.6729L58.8407 15.7386H58.8763ZM69.7718 13.9041L68.4716 8.66763H68.436L67.1179 13.9041H69.7718ZM70.1815 15.5783H66.6905L65.8355 19.0515H63.9832L67.2782 6.97557H69.6115L72.9066 19.0515H71.0542L70.1815 15.5783ZM76.7311 19.0515V6.97557H80.8098C83.2143 6.97557 84.9064 8.06205 84.9064 10.5734C84.9064 13.0848 82.9293 14.0644 80.6851 14.0644H78.5656V19.0515H76.7311ZM78.5656 12.3902H80.7208C81.9853 12.3902 83.0718 11.9983 83.0718 10.5378C83.0718 8.9526 82.11 8.64981 80.7386 8.64981H78.5656V12.3902ZM92.2575 19.2118C90.4407 19.2118 88.4637 18.0719 88.4637 16.0771V15.703H90.2983C90.3161 16.8429 91.1176 17.5376 92.2575 17.5376C93.2905 17.5376 94.2523 17.0389 94.2523 15.8633C94.2523 14.5453 92.8809 14.0288 91.5094 13.3876C90.138 12.7286 88.7487 11.9627 88.7487 10.1638C88.7487 8.07986 90.4764 6.81527 92.4712 6.81527C94.1277 6.81527 95.9622 7.97299 95.9622 9.78973V10.0213H94.1277C94.1989 9.00604 93.3974 8.48951 92.4356 8.48951C91.4738 8.48951 90.5832 8.86355 90.5832 10.0035C90.5832 10.8762 91.2779 11.3393 91.9725 11.6599L93.0412 12.1586C94.6798 12.9423 96.0869 13.7972 96.0869 15.8455C96.0869 17.965 94.2523 19.2118 92.2575 19.2118ZM109.579 19.2118C107.762 19.2118 105.785 18.0719 105.785 16.0771V15.703H107.62C107.638 16.8429 108.439 17.5376 109.579 17.5376C110.612 17.5376 111.574 17.0389 111.574 15.8633C111.574 14.5453 110.202 14.0288 108.831 13.3876C107.459 12.7286 106.07 11.9627 106.07 10.1638C106.07 8.07986 107.798 6.81527 109.793 6.81527C111.449 6.81527 113.284 7.97299 113.284 9.78973V10.0213H111.449C111.52 9.00604 110.719 8.48951 109.757 8.48951C108.795 8.48951 107.905 8.86355 107.905 10.0035C107.905 10.8762 108.599 11.3393 109.294 11.6599L110.363 12.1586C112.001 12.9423 113.408 13.7972 113.408 15.8455C113.408 17.965 111.574 19.2118 109.579 19.2118ZM122.416 8.64981V17.3773H124.589V19.0515H118.408V17.3773H120.581V8.64981H118.765V6.97557H124.215V8.64981H122.416ZM133.436 11.6243L134.843 6.97557H137.675V19.0515H135.841V8.98823H135.805L134.149 15.1331H132.688L131.032 8.98823H130.996V19.0515H129.161V6.97557H131.993L133.401 11.6243H133.436ZM141.25 6.97557H143.085V14.8837C143.085 16.5758 143.495 17.5376 145.329 17.5376C147.164 17.5376 147.573 16.5758 147.573 14.8837V6.97557H149.408V15.0084C149.408 17.6266 148.143 19.2118 145.329 19.2118C142.497 19.2118 141.25 17.6266 141.25 15.0084V6.97557ZM155.601 17.3773H161.782V19.0515H153.767V6.97557H155.601V17.3773ZM170.469 13.9041L169.168 8.66763H169.133L167.815 13.9041H170.469ZM170.878 15.5783H167.387L166.532 19.0515H164.68L167.975 6.97557H170.308L173.603 19.0515H171.751L170.878 15.5783ZM181.97 8.64981V19.0515H180.135V8.64981H176.876V6.97557H185.229V8.64981H181.97ZM192.972 6.81527C196.036 6.81527 197.247 10.5556 197.247 12.9957C197.247 15.6496 196.053 19.2118 192.972 19.2118C189.891 19.2118 188.697 15.6496 188.697 12.9957C188.697 10.5556 189.909 6.81527 192.972 6.81527ZM192.972 8.48951C190.835 8.48951 190.532 11.5352 190.532 13.0848C190.532 14.5987 190.87 17.5376 192.972 17.5376C195.056 17.5376 195.412 14.5987 195.412 13.0848C195.412 11.5352 195.092 8.48951 192.972 8.48951ZM203.102 14.0466V19.0515H201.267V6.97557H204.776C206.985 6.97557 208.677 8.11548 208.677 10.5022C208.677 12.0161 207.84 13.3876 206.272 13.6726L209.425 19.0515H207.323L204.562 14.0466H203.102ZM203.102 12.3723H204.455C205.934 12.3723 206.842 12.0161 206.842 10.4309C206.842 8.84574 205.738 8.64981 204.438 8.64981H203.102V12.3723Z" fill="white"/>
</svg>
