<svg width="212" height="26" viewBox="0 0 212 26" fill="none" xmlns="http://www.w3.org/2000/svg">
<path d="M25.9386 0.999985L15.6895 8.53215L17.5953 4.0932L25.9386 0.999985Z" fill="#E17726" stroke="#E17726" stroke-width="0.349318" stroke-linecap="round" stroke-linejoin="round"/>
<path d="M2.29785 0.999969L12.4557 8.60244L10.6411 4.09318L2.29785 0.999969Z" fill="#E27625" stroke="#E27625" stroke-width="0.349318" stroke-linecap="round" stroke-linejoin="round"/>
<path d="M22.2485 18.4646L19.5215 22.6022L25.3608 24.199L27.0335 18.5549L22.2485 18.4646Z" fill="#E27625" stroke="#E27625" stroke-width="0.349318" stroke-linecap="round" stroke-linejoin="round"/>
<path d="M1.21289 18.5549L2.87546 24.199L8.70459 22.6022L5.98771 18.4646L1.21289 18.5549Z" fill="#E27625" stroke="#E27625" stroke-width="0.349318" stroke-linecap="round" stroke-linejoin="round"/>
<path d="M8.39009 11.4747L6.76807 13.9051L12.5465 14.1662L12.3539 7.98982L8.39009 11.4747Z" fill="#E27625" stroke="#E27625" stroke-width="0.349318" stroke-linecap="round" stroke-linejoin="round"/>
<path d="M19.8459 11.4747L15.8212 7.91951L15.6895 14.1662L21.4679 13.9051L19.8459 11.4747Z" fill="#E27625" stroke="#E27625" stroke-width="0.349318" stroke-linecap="round" stroke-linejoin="round"/>
<path d="M8.70459 22.6022L12.2021 20.9251L9.1912 18.5951L8.70459 22.6022Z" fill="#E27625" stroke="#E27625" stroke-width="0.349318" stroke-linecap="round" stroke-linejoin="round"/>
<path d="M16.0342 20.9251L19.5215 22.6022L19.0451 18.5951L16.0342 20.9251Z" fill="#E27625" stroke="#E27625" stroke-width="0.349318" stroke-linecap="round" stroke-linejoin="round"/>
<path d="M19.5215 22.6023L16.0342 20.9252L16.318 23.1748L16.2876 24.1289L19.5215 22.6023Z" fill="#D5BFB2" stroke="#D5BFB2" stroke-width="0.349318" stroke-linecap="round" stroke-linejoin="round"/>
<path d="M8.70459 22.6023L11.9486 24.1288L11.9284 23.1747L12.2021 20.9251L8.70459 22.6023Z" fill="#D5BFB2" stroke="#D5BFB2" stroke-width="0.349318" stroke-linecap="round" stroke-linejoin="round"/>
<path d="M12.0092 17.1088L9.10986 16.2652L11.1577 15.3312L12.0092 17.1088Z" fill="#233447" stroke="#233447" stroke-width="0.349318" stroke-linecap="round" stroke-linejoin="round"/>
<path d="M16.2266 17.1088L17.0781 15.3312L19.1361 16.2652L16.2266 17.1088Z" fill="#233447" stroke="#233447" stroke-width="0.349318" stroke-linecap="round" stroke-linejoin="round"/>
<path d="M8.70467 22.6023L9.21156 18.4646L5.98779 18.555L8.70467 22.6023Z" fill="#CC6228" stroke="#CC6228" stroke-width="0.349318" stroke-linecap="round" stroke-linejoin="round"/>
<path d="M19.0249 18.4646L19.5216 22.6023L22.2487 18.555L19.0249 18.4646Z" fill="#CC6228" stroke="#CC6228" stroke-width="0.349318" stroke-linecap="round" stroke-linejoin="round"/>
<path d="M21.4679 13.9051L15.6895 14.1662L16.2267 17.1088L17.0783 15.3312L19.1362 16.2652L21.4679 13.9051Z" fill="#CC6228" stroke="#CC6228" stroke-width="0.349318" stroke-linecap="round" stroke-linejoin="round"/>
<path d="M9.11034 16.2652L11.1581 15.3312L12.0097 17.1088L12.547 14.1662L6.76855 13.9051L9.11034 16.2652Z" fill="#CC6228" stroke="#CC6228" stroke-width="0.349318" stroke-linecap="round" stroke-linejoin="round"/>
<path d="M6.76807 13.9051L9.19096 18.5951L9.10986 16.2652L6.76807 13.9051Z" fill="#E27525" stroke="#E27525" stroke-width="0.349318" stroke-linecap="round" stroke-linejoin="round"/>
<path d="M19.1357 16.2652L19.0444 18.5952L21.4673 13.9051L19.1357 16.2652Z" fill="#E27525" stroke="#E27525" stroke-width="0.349318" stroke-linecap="round" stroke-linejoin="round"/>
<path d="M12.5461 14.1662L12.0088 17.1088L12.688 20.5836L12.8401 16.0041L12.5461 14.1662Z" fill="#E27525" stroke="#E27525" stroke-width="0.349318" stroke-linecap="round" stroke-linejoin="round"/>
<path d="M15.6891 14.1662L15.4053 15.994L15.5472 20.5836L16.2264 17.1088L15.6891 14.1662Z" fill="#E27525" stroke="#E27525" stroke-width="0.349318" stroke-linecap="round" stroke-linejoin="round"/>
<path d="M16.2266 17.1088L15.5474 20.5836L16.034 20.9251L19.0448 18.5951L19.1361 16.2652L16.2266 17.1088Z" fill="#F5841F" stroke="#F5841F" stroke-width="0.349318" stroke-linecap="round" stroke-linejoin="round"/>
<path d="M9.10986 16.2652L9.19096 18.5951L12.2018 20.9251L12.6884 20.5836L12.0092 17.1088L9.10986 16.2652Z" fill="#F5841F" stroke="#F5841F" stroke-width="0.349318" stroke-linecap="round" stroke-linejoin="round"/>
<path d="M16.2875 24.1287L16.3179 23.1746L16.0544 22.9537H12.1818L11.9284 23.1746L11.9486 24.1287L8.70459 22.6022L9.84 23.5261L12.1412 25.1029H16.0848L18.3962 23.5261L19.5214 22.6022L16.2875 24.1287Z" fill="#C0AC9D" stroke="#C0AC9D" stroke-width="0.349318" stroke-linecap="round" stroke-linejoin="round"/>
<path d="M16.0344 20.9251L15.5478 20.5836H12.689L12.2024 20.9251L11.9287 23.1747L12.1822 22.9537H16.0547L16.3183 23.1747L16.0344 20.9251Z" fill="#161616" stroke="#161616" stroke-width="0.349318" stroke-linecap="round" stroke-linejoin="round"/>
<path d="M26.3745 9.02426L27.2362 4.8665L25.9386 0.999985L16.0342 8.28108L19.8459 11.4747L25.229 13.0314L26.4151 11.6555L25.8981 11.2839L26.7192 10.5407L26.0907 10.0587L26.9118 9.43601L26.3745 9.02426Z" fill="#763E1A" stroke="#763E1A" stroke-width="0.349318" stroke-linecap="round" stroke-linejoin="round"/>
<path d="M1 4.86651L1.87184 9.02427L1.31427 9.43603L2.14555 10.0587L1.51702 10.5407L2.33817 11.2839L1.82115 11.6555L3.00725 13.0314L8.39032 11.4747L12.2021 8.2811L2.29761 1L1 4.86651Z" fill="#763E1A" stroke="#763E1A" stroke-width="0.349318" stroke-linecap="round" stroke-linejoin="round"/>
<path d="M25.2289 13.0313L19.8458 11.4747L21.4678 13.9051L19.0449 18.5951L22.2484 18.5549H27.0334L25.2289 13.0313Z" fill="#F5841F" stroke="#F5841F" stroke-width="0.349318" stroke-linecap="round" stroke-linejoin="round"/>
<path d="M8.39032 11.4747L3.00725 13.0313L1.21289 18.5549H5.98771L9.1912 18.5951L6.7683 13.9051L8.39032 11.4747Z" fill="#F5841F" stroke="#F5841F" stroke-width="0.349318" stroke-linecap="round" stroke-linejoin="round"/>
<path d="M15.6892 14.1662L16.0338 8.28107L17.595 4.09319H10.6406L12.2018 8.28107L12.5465 14.1662L12.6783 16.0141L12.6884 20.5836H15.5472L15.5574 16.0141L15.6892 14.1662Z" fill="#F5841F" stroke="#F5841F" stroke-width="0.349318" stroke-linecap="round" stroke-linejoin="round"/>
<path d="M44.6147 19.2118C46.6095 19.2118 48.4441 17.965 48.4441 15.8455C48.4441 13.7972 47.037 12.9423 45.3984 12.1586L44.3297 11.6598C43.6351 11.3392 42.9405 10.8762 42.9405 10.0034C42.9405 8.8635 43.831 8.48947 44.7928 8.48947C45.7546 8.48947 46.5561 9.00599 46.4849 10.0212H48.3194V9.78968C48.3194 7.97295 46.4849 6.81522 44.8284 6.81522C42.8336 6.81522 41.1059 8.07981 41.1059 10.1637C41.1059 11.9626 42.4952 12.7285 43.8666 13.3875C45.2381 14.0287 46.6095 14.5453 46.6095 15.8633C46.6095 17.0388 45.6477 17.5375 44.6147 17.5375C43.4748 17.5375 42.6733 16.8429 42.6555 15.703H40.8209V16.077C40.8209 18.0719 42.798 19.2118 44.6147 19.2118ZM58.8765 15.7386H58.8409L54.6731 6.97552H52.5358V19.0515H54.21V9.91436H54.2456L58.5559 19.0515H60.5508V6.97552H58.8765V15.7386ZM69.772 13.9041H67.1182L68.4362 8.66758H68.4718L69.772 13.9041ZM70.1817 15.5783L71.0544 19.0515H72.9068L69.6117 6.97552H67.2785L63.9834 19.0515H65.8358L66.6907 15.5783H70.1817ZM76.7313 19.0515H78.5659V14.0644H80.6854C82.9296 14.0644 84.9066 13.0847 84.9066 10.5734C84.9066 8.062 83.2146 6.97552 80.8101 6.97552H76.7313V19.0515ZM78.5659 12.3901V8.64977H80.7388C82.1103 8.64977 83.0721 8.95256 83.0721 10.5377C83.0721 11.9983 81.9856 12.3901 80.721 12.3901H78.5659ZM92.2577 19.2118C94.2526 19.2118 96.0871 17.965 96.0871 15.8455C96.0871 13.7972 94.68 12.9423 93.0414 12.1586L91.9727 11.6598C91.2781 11.3392 90.5835 10.8762 90.5835 10.0034C90.5835 8.8635 91.474 8.48947 92.4358 8.48947C93.3976 8.48947 94.1991 9.00599 94.1279 10.0212H95.9624V9.78968C95.9624 7.97295 94.1279 6.81522 92.4715 6.81522C90.4766 6.81522 88.7489 8.07981 88.7489 10.1637C88.7489 11.9626 90.1382 12.7285 91.5097 13.3875C92.8811 14.0287 94.2526 14.5453 94.2526 15.8633C94.2526 17.0388 93.2908 17.5375 92.2577 17.5375C91.1178 17.5375 90.3163 16.8429 90.2985 15.703H88.464V16.077C88.464 18.0719 90.441 19.2118 92.2577 19.2118ZM109.579 19.2118C111.574 19.2118 113.409 17.965 113.409 15.8455C113.409 13.7972 112.002 12.9423 110.363 12.1586L109.294 11.6598C108.6 11.3392 107.905 10.8762 107.905 10.0034C107.905 8.8635 108.796 8.48947 109.757 8.48947C110.719 8.48947 111.521 9.00599 111.449 10.0212H113.284V9.78968C113.284 7.97295 111.449 6.81522 109.793 6.81522C107.798 6.81522 106.07 8.07981 106.07 10.1637C106.07 11.9626 107.46 12.7285 108.831 13.3875C110.203 14.0287 111.574 14.5453 111.574 15.8633C111.574 17.0388 110.612 17.5375 109.579 17.5375C108.439 17.5375 107.638 16.8429 107.62 15.703H105.785V16.077C105.785 18.0719 107.763 19.2118 109.579 19.2118ZM122.416 8.64977H124.215V6.97552H118.765V8.64977H120.582V17.3772H118.409V19.0515H124.589V17.3772H122.416V8.64977ZM133.436 11.6242H133.401L131.994 6.97552H129.162V19.0515H130.996V8.98818H131.032L132.688 15.133H134.149L135.805 8.98818H135.841V19.0515H137.675V6.97552H134.843L133.436 11.6242ZM141.251 6.97552V15.0083C141.251 17.6266 142.497 19.2118 145.329 19.2118C148.143 19.2118 149.408 17.6266 149.408 15.0083V6.97552H147.574V14.8837C147.574 16.5757 147.164 17.5375 145.329 17.5375C143.495 17.5375 143.085 16.5757 143.085 14.8837V6.97552H141.251ZM155.601 17.3772V6.97552H153.767V19.0515H161.782V17.3772H155.601ZM170.469 13.9041H167.815L169.133 8.66758H169.169L170.469 13.9041ZM170.879 15.5783L171.751 19.0515H173.604L170.309 6.97552H167.975L164.68 19.0515H166.533L167.388 15.5783H170.879ZM181.97 8.64977H185.229V6.97552H176.876V8.64977H180.135V19.0515H181.97V8.64977ZM192.972 6.81522C189.909 6.81522 188.698 10.5556 188.698 12.9957C188.698 15.6495 189.891 19.2118 192.972 19.2118C196.054 19.2118 197.247 15.6495 197.247 12.9957C197.247 10.5556 196.036 6.81522 192.972 6.81522ZM192.972 8.48947C195.092 8.48947 195.412 11.5352 195.412 13.0847C195.412 14.5987 195.056 17.5375 192.972 17.5375C190.871 17.5375 190.532 14.5987 190.532 13.0847C190.532 11.5352 190.835 8.48947 192.972 8.48947ZM203.102 14.0465H204.563L207.323 19.0515H209.425L206.272 13.6725C207.84 13.3875 208.677 12.0161 208.677 10.5021C208.677 8.11544 206.985 6.97552 204.776 6.97552H201.267V19.0515H203.102V14.0465ZM203.102 12.3723V8.64977H204.438C205.738 8.64977 206.842 8.84569 206.842 10.4309C206.842 12.0161 205.934 12.3723 204.456 12.3723H203.102Z" fill="#161616"/>
</svg>
