<svg width="32" height="32" viewBox="0 0 32 32" fill="none" xmlns="http://www.w3.org/2000/svg">
  <rect width="32" height="32" rx="16" fill="#037DD6" fill-opacity="0.1"/>
  <path d="M22.3596 18.075L21.4929 16.6917C21.3109 16.3833 21.1462 15.8 21.1462 15.4583V13.35C21.1462 11.3917 19.9501 9.69999 18.2253 8.90832C17.7747 8.14166 16.9426 7.66666 15.9892 7.66666C15.0445 7.66666 14.1951 8.15832 13.7444 8.93332C12.0543 9.74166 10.8842 11.4167 10.8842 13.35V15.4583C10.8842 15.8 10.7195 16.3833 10.5375 16.6833L9.66214 18.075C9.31546 18.6333 9.23745 19.25 9.45413 19.8167C9.66214 20.375 10.1562 20.8083 10.7975 21.0167C12.479 21.5667 14.2471 21.8333 16.0152 21.8333C17.7833 21.8333 19.5514 21.5667 21.2329 21.025C21.8396 20.8333 22.3076 20.3917 22.533 19.8167C22.7583 19.2417 22.6976 18.6083 22.3596 18.075Z" fill="#0376C9"/>
  <path d="M18.4504 22.675C18.0864 23.6417 17.1243 24.3333 15.9976 24.3333C15.3129 24.3333 14.6369 24.0667 14.1602 23.5917C13.8828 23.3417 13.6748 23.0083 13.5535 22.6667C13.6661 22.6833 13.7788 22.6917 13.9001 22.7083C14.0995 22.7333 14.3075 22.7583 14.5155 22.775C15.0095 22.8167 15.5122 22.8417 16.0149 22.8417C16.509 22.8417 17.003 22.8167 17.4884 22.775C17.6704 22.7583 17.8524 22.75 18.0257 22.725C18.1644 22.7083 18.3031 22.6917 18.4504 22.675Z" fill="#0376C9"/>
</svg>
