<svg width="14" height="16" viewBox="0 0 14 16" fill="none" xmlns="http://www.w3.org/2000/svg">
<path d="M6.94964 0.857178C6.506 0.857178 6.19629 1.16689 6.19629 1.60216V10.0564L6.26325 11.856L3.74372 9.09375L1.86872 7.2439C1.72642 7.10997 1.5339 7.03464 1.33301 7.03464C0.90611 7.03464 0.604771 7.35271 0.604771 7.77124C0.604771 7.97214 0.688476 8.15632 0.847517 8.33204L6.38881 13.8734C6.54785 14.0407 6.74038 14.1328 6.94964 14.1328C7.15053 14.1328 7.35142 14.0407 7.51046 13.8734L13.0434 8.33204C13.2108 8.15632 13.2945 7.97214 13.2945 7.77124C13.2945 7.35271 12.9848 7.03464 12.5663 7.03464C12.3654 7.03464 12.1645 7.10997 12.0306 7.2439L10.1556 9.09375L7.63602 11.8477L7.69462 10.0564V1.60216C7.69462 1.16689 7.3849 0.857178 6.94964 0.857178ZM1.29115 14.1161C0.864258 14.1161 0.571289 14.4258 0.571289 14.8611C0.571289 15.2963 0.864258 15.6145 1.29115 15.6145H12.583C13.0183 15.6145 13.3196 15.2963 13.3196 14.8611C13.3196 14.4258 13.0183 14.1161 12.583 14.1161H1.29115Z" fill="#BBC0C5"/>
</svg>
