<svg width="11" height="11" viewBox="0 0 11 11" fill="none" xmlns="http://www.w3.org/2000/svg">
  <path d="M10.2478 8.36649L10.2411 1.6299C10.2411 1.2482 9.99335 0.980347 9.59158 0.980347H2.85494C2.47994 0.980347 2.22548 1.26829 2.22548 1.58972C2.22548 1.91115 2.51343 2.1857 2.82816 2.1857H5.15851L8.42638 2.07856L7.18083 3.17008L0.544678 9.81963C0.424142 9.94014 0.357178 10.0942 0.357178 10.2415C0.357178 10.5629 0.645124 10.8643 0.979943 10.8643C1.13397 10.8643 1.28129 10.8107 1.40182 10.6835L8.05135 4.04061L9.15626 2.78838L9.03575 5.91562V8.39329C9.03575 8.70803 9.31032 9.00266 9.63843 9.00266C9.95986 9.00266 10.2478 8.72814 10.2478 8.36649Z" fill="#BBC0C5"/>
</svg>
