<svg width="8" height="12" viewBox="0 0 8 12" fill="none" xmlns="http://www.w3.org/2000/svg">
<path d="M1.39929 12C1.17951 12 1.03299 11.9326 0.886467 11.7978C0.593427 11.5281 0.593427 11.1236 0.886467 10.8539L5.64837 6.47191C5.79489 6.33708 5.86815 6.20225 5.86815 6C5.86815 5.79775 5.79489 5.66292 5.64837 5.52809L0.886467 1.14607C0.593427 0.876404 0.593427 0.47191 0.886467 0.202247C1.17951 -0.0674157 1.61907 -0.0674157 1.91211 0.202247L6.67401 4.58427C7.11357 4.98876 7.33335 5.46067 7.33335 6C7.33335 6.53932 7.11357 7.07865 6.67401 7.41573L1.91211 11.7978C1.76559 11.9326 1.61907 12 1.39929 12Z" fill="#BBC0C5"/>
</svg>
