<svg width="35" height="28" viewBox="0 0 35 28" fill="none" xmlns="http://www.w3.org/2000/svg">
  <path d="M3.5851 22.8713H30.599C32.8976 22.8713 34.0947 21.688 34.0947 19.3756V3.78756C34.0947 1.4888 32.8976 0.30542 30.599 0.30542H3.5851C1.28634 0.30542 0.0893555 1.4888 0.0893555 3.78756V19.3756C0.0893555 21.688 1.28634 22.8713 3.5851 22.8713ZM3.62591 20.6814C2.72817 20.6814 2.2793 20.2326 2.2793 19.3483V3.82837C2.2793 2.93063 2.72817 2.49536 3.62591 2.49536H30.5581C31.4558 2.49536 31.9048 2.93063 31.9048 3.82837V19.3483C31.9048 20.2326 31.4558 20.6814 30.5581 20.6814H3.62591ZM10.2501 27.4825H23.9339C24.5324 27.4825 25.0357 26.9928 25.0357 26.3806C25.0357 25.7686 24.5324 25.2789 23.9339 25.2789H10.2501C9.65164 25.2789 9.14837 25.7686 9.14837 26.3806C9.14837 26.9928 9.65164 27.4825 10.2501 27.4825ZM17.7586 17.0768C18.0169 17.0768 18.1938 16.9 18.2481 16.6416C18.9963 12.6425 19.3636 11.8945 23.5258 11.3367C23.7979 11.2959 23.9746 11.1055 23.9746 10.8471C23.9746 10.5886 23.7979 10.3846 23.5258 10.3438C19.3772 9.78609 18.8467 8.99718 18.2481 5.06617C18.2074 4.79412 18.0169 4.61729 17.7586 4.61729C17.5001 4.61729 17.3096 4.78051 17.2553 5.05256C16.4935 9.06519 16.1398 9.78609 11.9776 10.3438C11.7056 10.3846 11.5287 10.5886 11.5287 10.8471C11.5287 11.1055 11.7056 11.2959 11.9776 11.3367C16.1534 11.7584 16.6704 12.6425 17.2553 16.628C17.296 16.9 17.4729 17.0768 17.7586 17.0768ZM12.3993 19.294C12.5897 19.294 12.7393 19.1716 12.7801 18.9811C13.161 17.0088 13.0249 16.9136 15.1877 16.5871C15.3782 16.56 15.5005 16.3968 15.5005 16.2063C15.5005 16.0295 15.3782 15.8662 15.1877 15.839C13.0249 15.4854 13.161 15.3902 12.7801 13.4722C12.7393 13.2683 12.6032 13.1187 12.3993 13.1187C12.2088 13.1187 12.0864 13.2546 12.0321 13.4722C11.6376 15.3902 11.8007 15.4854 9.63804 15.839C9.43401 15.8662 9.32519 16.0295 9.32519 16.2063C9.32519 16.4239 9.43401 16.56 9.66525 16.5871C11.8007 16.9136 11.6376 17.0088 12.0321 18.9403C12.0864 19.158 12.1953 19.294 12.3993 19.294Z" fill="#BBC0C5"/>
</svg>
