<svg width="22" height="22" viewBox="0 0 22 22" fill="none" xmlns="http://www.w3.org/2000/svg">
<path d="M10.2869 21.7077H12.1351C12.6574 21.7077 13.0391 21.3963 13.1496 20.884L13.672 18.6742C14.0637 18.5436 14.4454 18.3929 14.7768 18.2322L16.7155 19.4175C17.1474 19.6887 17.6396 19.6485 18.0012 19.2869L19.297 18.0012C19.6586 17.6396 19.7088 17.1172 19.4175 16.6853L18.2322 14.7668C18.403 14.4153 18.5536 14.0536 18.6641 13.692L20.8941 13.1596C21.4063 13.0492 21.7077 12.6675 21.7077 12.1451V10.327C21.7077 9.81481 21.4063 9.43313 20.8941 9.32264L18.6842 8.79025C18.5536 8.37842 18.3929 8.00676 18.2523 7.69538L19.4376 5.74672C19.7188 5.3148 19.6887 4.82262 19.317 4.461L18.0012 3.16525C17.6296 2.82373 17.1876 2.76346 16.7456 3.01458L14.7768 4.22998C14.4554 4.05922 14.0838 3.90855 13.672 3.77797L13.1496 1.53802C13.0391 1.02574 12.6574 0.714355 12.1351 0.714355H10.2869C9.76458 0.714355 9.3829 1.02574 9.26235 1.53802L8.74002 3.75788C8.34828 3.88846 7.96659 4.03914 7.62507 4.21993L5.67641 3.01458C5.23445 2.76346 4.78243 2.81369 4.41078 3.16525L3.10498 4.461C2.73333 4.82262 2.69315 5.3148 2.98445 5.74672L4.15967 7.69538C4.02909 8.00676 3.86838 8.37842 3.73779 8.79025L1.52797 9.32264C1.01569 9.43313 0.714355 9.81481 0.714355 10.327V12.1451C0.714355 12.6675 1.01569 13.0492 1.52797 13.1596L3.75788 13.692C3.86838 14.0536 4.01904 14.4153 4.17976 14.7668L3.00454 16.6853C2.70319 17.1172 2.76346 17.6396 3.12507 18.0012L4.41078 19.2869C4.7724 19.6485 5.27462 19.6887 5.70654 19.4175L7.63512 18.2322C7.97664 18.3929 8.34828 18.5436 8.74002 18.6742L9.26235 20.884C9.3829 21.3963 9.76458 21.7077 10.2869 21.7077ZM11.211 14.7568C9.26235 14.7568 7.66525 13.1496 7.66525 11.201C7.66525 9.26235 9.26235 7.66525 11.211 7.66525C13.1596 7.66525 14.7568 9.26235 14.7568 11.201C14.7568 13.1496 13.1596 14.7568 11.211 14.7568Z" fill="#9FA6AE"/>
</svg>
