<svg width="20" height="18" viewBox="0 0 20 18" fill="none" xmlns="http://www.w3.org/2000/svg">
<path d="M18.091 6.34927C16.2819 6.34927 15.5422 5.12879 16.4418 3.63179C16.9615 2.7641 16.6517 1.65804 15.7421 1.16222L14.013 0.218258C13.2234 -0.229888 12.2039 0.0370925 11.7341 0.790358L11.6242 0.971523C10.7246 2.46852 9.24538 2.46852 8.33583 0.971523L8.22589 0.790358C7.77611 0.0370925 6.75662 -0.229888 5.96702 0.218258L4.23788 1.16222C3.32834 1.65804 3.01849 2.77364 3.53823 3.64133C4.44778 5.12879 3.70815 6.34927 1.89905 6.34927C0.85957 6.34927 0 7.15974 0 8.16092V9.83908C0 10.8307 0.849575 11.6507 1.89905 11.6507C3.70815 11.6507 4.44778 12.8712 3.53823 14.3682C3.01849 15.2359 3.32834 16.342 4.23788 16.8378L5.96702 17.7817C6.75662 18.2299 7.77611 17.9629 8.24588 17.2096L8.35582 17.0285C9.25537 15.5315 10.7346 15.5315 11.6442 17.0285L11.7541 17.2096C12.2239 17.9629 13.2434 18.2299 14.033 17.7817L15.7621 16.8378C16.6717 16.342 16.9815 15.2264 16.4618 14.3682C15.5522 12.8712 16.2919 11.6507 18.101 11.6507C19.1404 11.6507 20 10.8403 20 9.83908V8.16092C19.99 7.16928 19.1404 6.34927 18.091 6.34927ZM9.995 12.0989C8.2059 12.0989 6.74663 10.7068 6.74663 9C6.74663 7.29323 8.2059 5.90112 9.995 5.90112C11.7841 5.90112 13.2434 7.29323 13.2434 9C13.2434 10.7068 11.7841 12.0989 9.995 12.0989Z" fill="#6A737D"/>
</svg>
