<svg width="16" height="16" viewBox="0 0 16 16" fill="none" xmlns="http://www.w3.org/2000/svg">
  <path d="M11.825 0.5H8.675C6.36269 0.5 5.27823 1.32057 5.05231 3.30426C5.00504 3.71926 5.34874 4.0625 5.76643 4.0625H7.325C10.475 4.0625 11.9375 5.525 11.9375 8.675V10.2336C11.9375 10.6513 12.2807 10.995 12.6957 10.9477C14.6794 10.7218 15.5 9.63731 15.5 7.325V4.175C15.5 1.55 14.45 0.5 11.825 0.5Z" fill="#6A737D"/>
  <path d="M7.325 5H4.175C1.55 5 0.5 6.05 0.5 8.675V11.825C0.5 14.45 1.55 15.5 4.175 15.5H7.325C9.95 15.5 11 14.45 11 11.825V8.675C11 6.05 9.95 5 7.325 5ZM8.2175 9.2375L5.435 12.02C5.33 12.125 5.195 12.1775 5.0525 12.1775C4.91 12.1775 4.775 12.125 4.67 12.02L3.275 10.625C3.065 10.415 3.065 10.0775 3.275 9.8675C3.485 9.6575 3.8225 9.6575 4.0325 9.8675L5.045 10.88L7.4525 8.4725C7.6625 8.2625 8 8.2625 8.21 8.4725C8.42 8.6825 8.4275 9.0275 8.2175 9.2375Z" fill="#6A737D"/>
</svg>
