<svg width="16" height="16" viewBox="0 0 16 16" fill="none" xmlns="http://www.w3.org/2000/svg">
  <path d="M11.825 0.603027H8.675C6.36269 0.603027 5.27823 1.42359 5.05231 3.40729C5.00504 3.82229 5.34874 4.16553 5.76643 4.16553H7.325C10.475 4.16553 11.9375 5.62803 11.9375 8.77803V10.3366C11.9375 10.7543 12.2807 11.098 12.6957 11.0507C14.6794 10.8248 15.5 9.74034 15.5 7.42803V4.27803C15.5 1.65303 14.45 0.603027 11.825 0.603027Z" fill="#BBC0C5"/>
  <path d="M7.325 5.10303H4.175C1.55 5.10303 0.5 6.15303 0.5 8.77803V11.928C0.5 14.553 1.55 15.603 4.175 15.603H7.325C9.95 15.603 11 14.553 11 11.928V8.77803C11 6.15303 9.95 5.10303 7.325 5.10303ZM8.2175 9.34053L5.435 12.123C5.33 12.228 5.195 12.2805 5.0525 12.2805C4.91 12.2805 4.775 12.228 4.67 12.123L3.275 10.728C3.065 10.518 3.065 10.1805 3.275 9.97053C3.485 9.76053 3.8225 9.76053 4.0325 9.97053L5.045 10.983L7.4525 8.57553C7.6625 8.36553 8 8.36553 8.21 8.57553C8.42 8.78553 8.4275 9.13053 8.2175 9.34053Z" fill="#BBC0C5"/>
</svg>
