<svg width="16" height="16" viewBox="0 0 16 16" fill="none" xmlns="http://www.w3.org/2000/svg">
  <path d="M11 8.675V11.825C11 14.45 9.95 15.5 7.325 15.5H4.175C1.55 15.5 0.5 14.45 0.5 11.825V8.675C0.5 6.05 1.55 5 4.175 5H7.325C9.95 5 11 6.05 11 8.675Z" fill="#6A737D"/>
  <path d="M11.825 0.5H8.675C6.36269 0.5 5.27823 1.32057 5.05231 3.30426C5.00504 3.71926 5.34874 4.0625 5.76643 4.0625H7.325C10.475 4.0625 11.9375 5.525 11.9375 8.675V10.2336C11.9375 10.6513 12.2807 10.995 12.6957 10.9477C14.6794 10.7218 15.5 9.63731 15.5 7.325V4.175C15.5 1.55 14.45 0.5 11.825 0.5Z" fill="#6A737D"/>
</svg>
