<svg width="32" height="32" viewBox="0 0 32 32" fill="none" xmlns="http://www.w3.org/2000/svg">
<rect width="32" height="32" rx="16" fill="#037DD6" fill-opacity="0.1"/>
<path d="M15.927 18.0792L15.9272 18.0794L18.5015 19.6156C18.6946 19.7406 18.8992 19.7833 19.0834 19.7833C19.4651 19.7833 19.8419 19.5916 20.0542 19.2317C20.381 18.692 20.1994 18.001 19.6628 17.6862L17.0813 16.1456L17.0813 16.1456L17.0761 16.1426C17.0524 16.1288 16.98 16.0636 16.9087 15.9382C16.8377 15.8135 16.8167 15.715 16.8167 15.6833V12.2667C16.8167 11.6489 16.3096 11.1417 15.6917 11.1417C15.0739 11.1417 14.5667 11.6489 14.5667 12.2667V15.6833C14.5667 16.6006 15.1339 17.6055 15.927 18.0792ZM8.16675 16C8.16675 11.6845 11.6846 8.16667 16.0001 8.16667C20.3156 8.16667 23.8334 11.6845 23.8334 16C23.8334 20.3155 20.3156 23.8333 16.0001 23.8333C11.6846 23.8333 8.16675 20.3155 8.16675 16Z" fill="#0376C9" stroke="#037DD6"/>
</svg>
