<svg width="11" height="12" viewBox="0 0 11 12" fill="none" xmlns="http://www.w3.org/2000/svg">
  <path d="M0.759219 11.4364C0.581441 11.4364 0.462922 11.3772 0.344404 11.2587C0.107367 11.0216 0.107367 10.6661 0.344404 10.429L9.82588 0.947553C10.0629 0.710516 10.4185 0.710516 10.6555 0.947553C10.8926 1.18459 10.8926 1.54015 10.6555 1.77718L1.17403 11.2587C1.05551 11.3772 0.936996 11.4364 0.759219 11.4364Z" fill="#24272A"/>
  <path d="M10.2407 11.4364C10.0629 11.4364 9.9444 11.3772 9.82588 11.2587L0.344404 1.77718C0.107367 1.54015 0.107367 1.18459 0.344404 0.947553C0.581441 0.710516 0.936996 0.710516 1.17403 0.947553L10.6555 10.429C10.8926 10.6661 10.8926 11.0216 10.6555 11.2587C10.537 11.3772 10.4185 11.4364 10.2407 11.4364Z" fill="#24272A"/>
</svg>
