<svg width="11" height="11" viewBox="0 0 11 11" fill="none" xmlns="http://www.w3.org/2000/svg">
  <path d="M10.7478 8.36636L10.7411 1.62978C10.7411 1.24808 10.4933 0.980225 10.0916 0.980225H3.35494C2.97994 0.980225 2.72548 1.26817 2.72548 1.5896C2.72548 1.91103 3.01343 2.18558 3.32816 2.18558H5.65851L8.92638 2.07844L7.68083 3.16996L1.04468 9.81951C0.924142 9.94002 0.857178 10.0941 0.857178 10.2414C0.857178 10.5628 1.14512 10.8641 1.47994 10.8641C1.63397 10.8641 1.78129 10.8106 1.90182 10.6833L8.55135 4.04049L9.65626 2.78826L9.53575 5.91549V8.39316C9.53575 8.70791 9.81032 9.00253 10.1384 9.00253C10.4599 9.00253 10.7478 8.72802 10.7478 8.36636Z" fill="#535A61"/>
</svg>
