<svg width="27" height="23" viewBox="0 0 27 23" fill="none" xmlns="http://www.w3.org/2000/svg">
  <path d="M5.98047 3.04383C2.53516 5.12977 0.25 9.03211 0.25 13.8368C0.25 14.2586 0.613281 14.6219 1.01172 14.6102C1.42188 14.5985 1.71484 14.2821 1.72656 13.8602C1.83203 9.6532 3.63672 6.34852 6.50781 4.48523L5.98047 3.04383ZM20.9453 22.3914C25.5977 20.7039 27.5781 16.4383 25.7031 11.2821L24.8359 8.87977C23.9102 6.3368 22.1641 5.29383 20.1133 6.00867C19.5625 5.29383 18.7188 5.04773 17.8047 5.37586C17.4648 5.50477 17.1719 5.68055 16.8906 5.89148C16.293 5.11805 15.3672 4.8368 14.4062 5.17664C14.1484 5.27039 13.9023 5.41102 13.668 5.57508L12.332 1.91883C11.8281 0.524295 10.5625 -0.0616417 9.26172 0.407108C7.94922 0.887577 7.36328 2.14148 7.86719 3.53602L11.207 12.7235C11.2305 12.7821 11.2188 12.8289 11.1602 12.8524C11.125 12.8758 11.0781 12.8524 11.043 12.8172L9.67188 11.3172C8.99219 10.5907 8.17188 10.368 7.38672 10.6493C6.32031 11.0477 5.62891 12.0672 6.07422 13.2743C6.17969 13.6141 6.41406 14.0243 6.68359 14.3641L10.6094 19.1102C13.5859 22.6961 17.0547 23.8094 20.9453 22.3914ZM20.4414 20.8563C17.3711 21.9813 14.5 21.4071 11.7812 18.1375L7.85547 13.4149C7.73828 13.2743 7.65625 13.1454 7.58594 12.9461C7.44531 12.5711 7.60938 12.1375 8.05469 11.9735C8.42969 11.8446 8.73438 11.9852 9.02734 12.3016L11.7461 15.1024C12.1914 15.5711 12.5898 15.618 12.9883 15.4774C13.4453 15.3133 13.6328 14.8211 13.4453 14.3172L9.29688 2.9032C9.12109 2.43445 9.33203 1.98914 9.78906 1.82508C10.2344 1.66102 10.668 1.88367 10.832 2.35242L13.7969 10.4969C13.9375 10.8836 14.3711 11.0594 14.7578 10.9188C15.1328 10.7782 15.3438 10.368 15.2031 9.99305L14.1367 7.05164C14.2891 6.8993 14.5234 6.74695 14.7344 6.66492C15.2852 6.4657 15.7422 6.7118 15.9531 7.28602L16.8906 9.85242C17.0312 10.2508 17.4766 10.4032 17.8516 10.2625C18.2031 10.1336 18.4375 9.74695 18.2852 9.3368L17.5234 7.25086C17.6875 7.09852 17.9102 6.94617 18.1328 6.86414C18.6836 6.66492 19.1406 6.91102 19.3516 7.48523L19.9727 9.19617C20.125 9.60633 20.5586 9.75867 20.9336 9.61805C21.2969 9.48914 21.5195 9.0907 21.3789 8.69227L20.9219 7.42664C21.8945 7.07508 22.8203 7.87195 23.4531 9.62977L24.1914 11.6336C25.7969 16.0633 24.3438 19.4383 20.4414 20.8563Z" fill="#BBC0C5"/>
</svg>
