<svg width="15" height="14" viewBox="0 0 15 14" fill="none" xmlns="http://www.w3.org/2000/svg">
<path d="M1.97095 13.4375H12.3504C13.4888 13.4375 14.1785 12.6473 14.1785 11.6227C14.1785 11.3081 14.0848 10.9799 13.9174 10.6853L8.72094 1.63169C8.37271 1.02231 7.77676 0.714279 7.16065 0.714279C6.54459 0.714279 5.94191 1.02231 5.60041 1.63169L0.403983 10.6853C0.223179 10.9866 0.142822 11.3081 0.142822 11.6227C0.142822 12.6473 0.832554 13.4375 1.97095 13.4375ZM7.16739 8.96428C6.81916 8.96428 6.62499 8.76336 6.61825 8.40845L6.53122 4.76562C6.52454 4.41071 6.78568 4.15624 7.16065 4.15624C7.52231 4.15624 7.80351 4.4174 7.79682 4.77231L7.69642 8.40845C7.68968 8.77011 7.49551 8.96428 7.16739 8.96428ZM7.16739 11.2076C6.76556 11.2076 6.41739 10.8862 6.41739 10.4911C6.41739 10.0892 6.75888 9.76788 7.16739 9.76788C7.56916 9.76788 7.91071 10.0826 7.91071 10.4911C7.91071 10.8928 7.56248 11.2076 7.16739 11.2076Z" fill="#D34C46"/>
</svg>
