<svg width="12" height="9" viewBox="0 0 12 9" fill="none" xmlns="http://www.w3.org/2000/svg">
<path d="M1.43982 2.59752L1.85667 2.29116L2.26348 2.59752C2.43424 2.72307 2.63011 2.58747 2.56482 2.39662L2.39908 1.89439L2.81091 1.58803C2.96661 1.47252 2.90132 1.25153 2.71047 1.25153H2.19819L2.02743 0.714146C1.97219 0.54841 1.74116 0.54841 1.68591 0.714146L1.51515 1.25153H0.997855C0.801985 1.25153 0.736695 1.47252 0.892387 1.58803L1.30924 1.89439L1.14852 2.39662C1.08323 2.58747 1.27408 2.72307 1.43982 2.59752ZM4.39797 2.20075H10.706C10.9772 2.20075 11.1881 1.98982 11.1881 1.71861C11.1881 1.44741 10.9772 1.23647 10.706 1.23647H4.39797C4.12676 1.23647 3.91582 1.44741 3.91582 1.71861C3.91582 1.98982 4.12676 2.20075 4.39797 2.20075ZM1.43982 5.68122L1.85667 5.37486L2.26348 5.68122C2.43424 5.8118 2.63011 5.67118 2.56482 5.48033L2.39908 4.9781L2.81091 4.67174C2.96661 4.55622 2.90132 4.33524 2.71047 4.33524H2.19819L2.02743 3.79785C1.97219 3.63212 1.74116 3.63212 1.68591 3.79785L1.51515 4.33524H0.997855C0.801985 4.33524 0.736695 4.55622 0.892387 4.67174L1.30924 4.9781L1.14852 5.48033C1.08323 5.67118 1.27408 5.80678 1.43982 5.68122ZM4.39797 5.28948H10.706C10.9772 5.28948 11.1881 5.07854 11.1881 4.80734C11.1881 4.53613 10.9772 4.3252 10.706 4.3252H4.39797C4.12676 4.3252 3.91582 4.53613 3.91582 4.80734C3.91582 5.07854 4.12676 5.28948 4.39797 5.28948ZM1.43982 8.77497L1.85667 8.46861L2.26348 8.77497C2.43424 8.90555 2.63011 8.76493 2.56482 8.57408L2.39908 8.07185L2.81091 7.76549C2.96661 7.64997 2.90132 7.42899 2.71047 7.42899H2.19819L2.02743 6.8916C1.97219 6.72587 1.74116 6.72587 1.68591 6.8916L1.51515 7.42899H0.997855C0.801985 7.42899 0.736695 7.64997 0.892387 7.76549L1.30924 8.07185L1.14852 8.57408C1.08323 8.76493 1.27408 8.90053 1.43982 8.77497ZM4.39797 8.37821H10.706C10.9772 8.37821 11.1881 8.16727 11.1881 7.89607C11.1881 7.62486 10.9772 7.41392 10.706 7.41392H4.39797C4.12676 7.41392 3.91582 7.62486 3.91582 7.89607C3.91582 8.16727 4.12676 8.37821 4.39797 8.37821Z" fill="#9FA6AE"/>
</svg>
