<svg width="20" height="10" viewBox="0 0 20 10" fill="none" xmlns="http://www.w3.org/2000/svg">
  <path d="M1.25062 3.58405H18.7394C19.5732 3.58405 20 3.1771 20 2.34335V1.59894C20 0.785039 19.5732 0.368164 18.7394 0.368164H1.25062C0.416874 0.368164 0 0.785039 0 1.59894V2.34335C0 3.1771 0.416874 3.58405 1.25062 3.58405ZM1.25062 9.63202H8.66503C9.49871 9.63202 9.9156 9.22505 9.9156 8.39136V7.64687C9.9156 6.833 9.49871 6.41612 8.66503 6.41612H1.25062C0.416874 6.41612 0 6.833 0 7.64687V8.39136C0 9.22505 0.416874 9.63202 1.25062 9.63202Z" fill="#BBC0C5"/>
</svg>
