<svg width="20" height="16" viewBox="0 0 20 16" fill="none" xmlns="http://www.w3.org/2000/svg">
<path d="M18.8756 12.5145L13.9034 7.84371C13.5268 7.50892 13.0915 7.32478 12.6395 7.32478C12.1791 7.32478 11.769 7.48378 11.3839 7.827L7.60043 11.2087L6.0519 9.81085C5.70034 9.49271 5.31529 9.33371 4.92187 9.33371C4.5452 9.33371 4.19364 9.48435 3.84208 9.80242L0.652901 12.6819C0.703125 14.197 1.32254 14.9671 2.56976 14.9671H16.5988C18.1139 14.9671 18.8756 14.1216 18.8756 12.5145ZM6.23605 7.92742C7.31586 7.92742 8.20314 7.04017 8.20314 5.952C8.20314 4.8722 7.31586 3.97656 6.23605 3.97656C5.14788 3.97656 4.2606 4.8722 4.2606 5.952C4.2606 7.04017 5.14788 7.92742 6.23605 7.92742ZM2.62835 15.553H17.1094C18.8672 15.553 19.7377 14.6909 19.7377 12.9665V2.73772C19.7377 1.01339 18.8672 0.142853 17.1094 0.142853H2.62835C0.878907 0.142853 0 1.01339 0 2.73772V12.9665C0 14.6909 0.878907 15.553 2.62835 15.553ZM2.64509 14.2054C1.80804 14.2054 1.34766 13.7617 1.34766 12.8912V2.81305C1.34766 1.94252 1.80804 1.49051 2.64509 1.49051H17.0926C17.9213 1.49051 18.3901 1.94252 18.3901 2.81305V12.8912C18.3901 13.7617 17.9213 14.2054 17.0926 14.2054H2.64509Z" fill="#BBC0C5"/>
</svg>
