<svg width="14" height="10" viewBox="0 0 14 10" fill="none" xmlns="http://www.w3.org/2000/svg">
<path d="M2.7011 0.116699C1.61628 0.116699 1.04876 0.674177 1.04876 1.75398V2.82875C1.04876 3.14516 1.23961 3.33601 1.55099 3.33601C1.85735 3.33601 2.0482 3.14516 2.0482 2.82875V1.84438C2.0482 1.35721 2.30434 1.11614 2.76639 1.11614H11.229C11.6911 1.11614 11.9472 1.35721 11.9472 1.84438V2.82875C11.9472 3.14516 12.1431 3.33601 12.4494 3.33601C12.7608 3.33601 12.9517 3.14516 12.9517 2.82875V1.75398C12.9517 0.679199 12.3841 0.116699 11.2943 0.116699H2.7011ZM6.99016 7.11782C7.31662 7.11782 7.49742 6.90186 7.49742 6.55532V3.29081H8.59731C8.8434 3.29081 9.01416 3.13511 9.01416 2.89404C9.01416 2.64293 8.8434 2.49728 8.59731 2.49728H5.40311C5.15702 2.49728 4.98626 2.64293 4.98626 2.89404C4.98626 3.13511 5.15702 3.29081 5.40311 3.29081H6.49296V6.55532C6.49296 6.89683 6.66874 7.11782 6.99016 7.11782ZM1.55099 5.43032C1.94775 5.43032 2.2742 5.10386 2.2742 4.70208C2.2742 4.30532 1.94775 3.97384 1.55099 3.97384C1.1492 3.97384 0.822754 4.30532 0.822754 4.70208C0.822754 5.10386 1.1492 5.43032 1.55099 5.43032ZM12.4494 5.43032C12.8462 5.43032 13.1726 5.10386 13.1726 4.70208C13.1726 4.30532 12.8462 3.97384 12.4494 3.97384C12.0476 3.97384 11.7212 4.30029 11.7212 4.70208C11.7212 5.10386 12.0476 5.43032 12.4494 5.43032ZM2.7011 9.50342H11.2943C12.3841 9.50342 12.9517 8.94092 12.9517 7.86614V6.59047C12.9517 6.27407 12.7558 6.08322 12.4494 6.08322C12.138 6.08322 11.9472 6.27407 11.9472 6.59047V7.77574C11.9472 8.26291 11.6911 8.50398 11.229 8.50398H2.76639C2.30434 8.50398 2.0482 8.26291 2.0482 7.77574V6.59047C2.0482 6.27407 1.85735 6.08322 1.55099 6.08322C1.23961 6.08322 1.04876 6.27407 1.04876 6.59047V7.86614C1.04876 8.94092 1.61628 9.50342 2.7011 9.50342Z" fill="#9FA6AE"/>
</svg>
