<svg width="32" height="32" viewBox="0 0 32 32" fill="none" xmlns="http://www.w3.org/2000/svg">
<rect width="32" height="32" rx="16" fill="#037DD6" fill-opacity="0.1"/>
<path d="M8.21989 21.291L8.21988 21.291C8.18932 21.2583 8.16675 21.207 8.16675 21.1471V19.1826C8.16675 14.4859 11.6838 10.6827 15.9699 10.6667L15.9701 10.6667C16.9964 10.6625 18.0143 10.8752 18.9656 11.2936C19.9171 11.7121 20.7843 12.3287 21.5166 13.1096C22.2489 13.8907 22.8317 14.8206 23.2299 15.847C23.6281 16.8735 23.8334 17.975 23.8334 19.0883V21.1471C23.8334 21.2069 23.8109 21.2582 23.7804 21.2909C23.7508 21.3226 23.7183 21.3333 23.6924 21.3333H8.30777C8.28186 21.3333 8.24942 21.3226 8.21989 21.291ZM20.7702 13.8284L20.7702 13.8284C20.3171 13.3649 19.5778 13.3649 19.1247 13.8284L19.472 14.1678L19.1247 13.8284L16.153 16.8687C16.0603 16.8538 15.9654 16.8462 15.869 16.8462C14.8555 16.8462 14.0532 17.6835 14.0532 18.6923C14.0532 19.7011 14.8555 20.5385 15.869 20.5385C16.8825 20.5385 17.6848 19.7011 17.6848 18.6923C17.6848 18.6737 17.6845 18.6552 17.684 18.6367L20.7702 15.4793C21.217 15.0221 21.217 14.2856 20.7702 13.8284ZM21.2632 18.7436C22.0345 18.7436 22.6404 18.1071 22.6404 17.3462C22.6404 16.5852 22.0345 15.9487 21.2632 15.9487C20.4919 15.9487 19.886 16.5852 19.886 17.3462C19.886 18.1071 20.4919 18.7436 21.2632 18.7436ZM10.2983 18.7436C11.0696 18.7436 11.6755 18.1071 11.6755 17.3462C11.6755 16.5852 11.0696 15.9487 10.2983 15.9487C9.52704 15.9487 8.92113 16.5852 8.92113 17.3462C8.92113 18.1071 9.52704 18.7436 10.2983 18.7436ZM15.4304 14.2564C16.2017 14.2564 16.8076 13.6199 16.8076 12.859C16.8076 12.098 16.2017 11.4615 15.4304 11.4615C14.6591 11.4615 14.0532 12.098 14.0532 12.859C14.0532 13.6199 14.6591 14.2564 15.4304 14.2564Z" fill="#0376C9" stroke="#037DD6"/>
</svg>
