<svg width="32" height="32" viewBox="0 0 32 32" fill="none" xmlns="http://www.w3.org/2000/svg">
<rect width="32" height="32" rx="16" fill="#037DD6" fill-opacity="0.1"/>
<path d="M11.6307 15.4193L10.8125 14.7443V15.805V18.5007C10.7917 18.5002 10.7709 18.5 10.75 18.5C10.7291 18.5 10.7083 18.5002 10.6875 18.5007V13.4993C10.7083 13.4998 10.7291 13.5 10.75 13.5C10.7791 13.5 10.8081 13.4995 10.837 13.4986C10.907 14.1775 11.1309 14.7574 11.5618 15.1882C12.0947 15.7212 12.8558 15.9375 13.75 15.9375H18.5007C18.5002 15.9583 18.5 15.9791 18.5 16C18.5 16.0209 18.5002 16.0417 18.5007 16.0625H13.75C12.8152 16.0625 12.1199 15.8229 11.6307 15.4193ZM9.94785 19.6943C10.1432 19.9194 10.4309 20.0625 10.75 20.0625C11.0691 20.0625 11.3568 19.9194 11.5522 19.6943C12.1151 19.9851 12.5 20.5726 12.5 21.25C12.5 22.2165 11.7165 23 10.75 23C9.7835 23 9 22.2165 9 21.25C9 20.5726 9.38486 19.9851 9.94785 19.6943ZM10.75 11.9375C10.4309 11.9375 10.1432 12.0806 9.94785 12.3057C9.38486 12.0149 9 11.4274 9 10.75C9 9.7835 9.7835 9 10.75 9C11.7165 9 12.5 9.7835 12.5 10.75C12.5 11.4274 12.1151 12.0149 11.5522 12.3057C11.3568 12.0806 11.0691 11.9375 10.75 11.9375ZM19.6943 16.8022C19.9194 16.6068 20.0625 16.3191 20.0625 16C20.0625 15.6809 19.9194 15.3932 19.6943 15.1978C19.9851 14.6349 20.5726 14.25 21.25 14.25C22.2165 14.25 23 15.0335 23 16C23 16.9665 22.2165 17.75 21.25 17.75C20.5726 17.75 19.9851 17.3651 19.6943 16.8022Z" fill="#0376C9" stroke="#037DD6"/>
</svg>
