<svg width="16" height="16" viewBox="0 0 16 16" fill="none" xmlns="http://www.w3.org/2000/svg">
<path d="M9.6129 14H6.3871C3.35484 14 2 12.6452 2 9.6129V6.3871C2 3.35484 3.35484 2 6.3871 2H7.48387C7.87097 2 8.12903 2.25806 8.12903 2.64516C8.12903 3.03226 7.87097 3.29032 7.48387 3.29032H6.3871C4.06452 3.29032 3.29032 4.06452 3.29032 6.3871V9.6129C3.29032 11.9355 4.06452 12.7097 6.3871 12.7097H9.6129C11.9355 12.7097 12.7097 11.9355 12.7097 9.6129V8.51613C12.7097 8.12903 12.9677 7.87097 13.3548 7.87097C13.7419 7.87097 14 8.12903 14 8.51613V9.6129C14 12.6452 12.6452 14 9.6129 14ZM8.51613 8.12903C8.32258 8.12903 8.19355 8.06452 8.06452 7.93548C7.80645 7.67742 7.80645 7.29032 8.06452 7.03226L11.8065 3.29032H10.7742C10.3871 3.29032 10.129 3.03226 10.129 2.64516C10.129 2.25806 10.3871 2 10.7742 2H13.3548C13.7419 2 14 2.25806 14 2.64516V5.22581C14 5.6129 13.7419 5.87097 13.3548 5.87097C12.9677 5.87097 12.7097 5.6129 12.7097 5.22581V4.19355L8.96774 7.93548C8.83871 8.06452 8.70968 8.12903 8.51613 8.12903Z" fill="#0376C9"/>
</svg>
