<svg width="32" height="32" viewBox="0 0 32 32" fill="none" xmlns="http://www.w3.org/2000/svg">
  <rect width="32" height="32" rx="16" fill="#037DD6" fill-opacity="0.1"/>
  <path d="M12.6667 9H19.3333C20.7107 9 21.6087 9.35357 22.1624 9.89028C22.7141 10.425 23 11.2152 23 12.25V19.75C23 20.7848 22.7141 21.575 22.1624 22.1097C21.6087 22.6464 20.7107 23 19.3333 23H12.6667C11.2893 23 10.3913 22.6464 9.83757 22.1097C9.2859 21.575 9 20.7848 9 19.75V12.25C9 11.2152 9.2859 10.425 9.83757 9.89028C10.3913 9.35357 11.2893 9 12.6667 9ZM15.1095 20.5191C15.5718 20.103 15.5718 19.397 15.1095 18.9809L14.2974 18.25L15.1095 17.5191C15.5718 17.103 15.5718 16.397 15.1095 15.9809C14.6777 15.5922 13.989 15.5922 13.5572 15.9809L11.8905 17.4809C11.4282 17.897 11.4282 18.603 11.8905 19.0191L13.5572 20.5191C13.7837 20.723 14.0651 20.8125 14.3333 20.8125C14.6016 20.8125 14.883 20.723 15.1095 20.5191ZM18.4428 20.5191L20.1095 19.0191C20.5718 18.603 20.5718 17.897 20.1095 17.4809L18.4428 15.9809C18.011 15.5922 17.3223 15.5922 16.8905 15.9809C16.4282 16.397 16.4282 17.103 16.8905 17.5191L17.7026 18.25L16.8905 18.9809C16.4282 19.397 16.4282 20.103 16.8905 20.5191C17.117 20.723 17.3984 20.8125 17.6667 20.8125C17.9349 20.8125 18.2163 20.723 18.4428 20.5191ZM19.75 14.4375H21.4167C21.9836 14.4375 22.5417 14.0069 22.5417 13.375C22.5417 12.7431 21.9836 12.3125 21.4167 12.3125H19.75C19.4003 12.3125 19.2083 12.0681 19.2083 11.875V10.375C19.2083 9.74311 18.6503 9.3125 18.0833 9.3125C17.5164 9.3125 16.9583 9.74311 16.9583 10.375V11.875C16.9583 13.3394 18.258 14.4375 19.75 14.4375Z" fill="#0376C9" stroke="#037DD6"/>
</svg>
