<svg width="27" height="29" viewBox="0 0 27 29" fill="none" xmlns="http://www.w3.org/2000/svg">
  <path d="M12.0146 28.1093C16.8589 28.1093 20.79 25.674 22.5636 21.5179C22.8019 20.962 22.7225 20.512 22.471 20.2605C22.246 20.0223 21.8357 19.9825 21.3724 20.1546C20.3665 20.5516 19.162 20.79 17.6399 20.79C11.7102 20.79 7.91149 17.0839 7.91149 11.2865C7.91149 9.685 8.21591 8.08347 8.62622 7.2496C8.8777 6.7334 8.86446 6.27015 8.62622 6.00542C8.37474 5.71424 7.92471 5.62159 7.31586 5.85982C3.25244 7.51432 0.446426 11.763 0.446426 16.7001C0.446426 23.1459 5.19812 28.1093 12.0146 28.1093ZM12.0411 26.0843C6.40259 26.0843 2.47152 21.9679 2.47152 16.5413C2.47152 13.2189 4.02012 10.2674 6.482 8.38789C6.1511 9.26145 5.9658 10.5718 5.9658 11.8425C5.9658 18.3677 10.466 22.7356 17.1369 22.7356C18.3149 22.7356 19.4002 22.5768 19.9694 22.3914C18.3149 24.6813 15.3633 26.0843 12.0411 26.0843ZM21.8357 16.0118C22.0872 16.0118 22.2592 15.8397 22.2856 15.575C22.7225 12.041 22.8945 11.9483 26.4815 11.366C26.7594 11.3263 26.9315 11.1807 26.9315 10.9292C26.9315 10.6777 26.7594 10.5189 26.5345 10.4792C22.921 9.79089 22.7225 9.80413 22.2856 6.27015C22.2592 6.00542 22.0872 5.83336 21.8357 5.83336C21.5975 5.83336 21.4253 6.00542 21.3857 6.25691C20.9356 9.84384 20.8032 9.96296 17.1369 10.4792C16.9119 10.5056 16.7399 10.6777 16.7399 10.9292C16.7399 11.1674 16.9119 11.3263 17.1369 11.366C20.8032 12.0675 20.9224 12.0675 21.3857 15.6014C21.4253 15.8397 21.5975 16.0118 21.8357 16.0118ZM15.5089 7.05106C15.6678 7.05106 15.7472 6.95841 15.7736 6.81282C16.1839 4.60241 16.1707 4.54948 18.4737 4.11269C18.6193 4.08621 18.7252 3.99356 18.7252 3.83474C18.7252 3.6759 18.6193 3.58325 18.4737 3.55678C16.1707 3.09353 16.2501 3.04058 15.7736 0.856655C15.7472 0.71106 15.6678 0.618408 15.5089 0.618408C15.35 0.618408 15.2574 0.71106 15.2309 0.856655C14.7677 3.04058 14.8471 3.09353 12.544 3.55678C12.3852 3.58325 12.2926 3.6759 12.2926 3.83474C12.2926 3.99356 12.3852 4.08621 12.544 4.11269C14.8471 4.57595 14.8207 4.60241 15.2309 6.81282C15.2574 6.95841 15.35 7.05106 15.5089 7.05106Z" fill="#BBC0C5"/>
</svg>
