<svg width="21" height="16" viewBox="0 0 21 16" fill="none" xmlns="http://www.w3.org/2000/svg">
  <path d="M3.03851 15.6729H17.5279C19.2857 15.6729 20.1563 14.8023 20.1563 13.078V10.6087C20.1563 10.1734 19.9135 9.93067 19.4782 9.93067C19.043 9.93067 18.8086 10.1734 18.8086 10.6087V13.011C18.8086 13.8815 18.3315 14.3252 17.5111 14.3252H3.06361C2.22656 14.3252 1.76619 13.8815 1.76619 13.011V10.6087C1.76619 10.1734 1.51506 9.93067 1.08817 9.93067C0.661272 9.93067 0.418527 10.1734 0.418527 10.6087V13.078C0.418527 14.8107 1.29744 15.6729 3.03851 15.6729ZM3.03851 0.262695C1.29744 0.262695 0.418527 1.12486 0.418527 2.85756V4.90834C0.418527 5.34361 0.661272 5.59473 1.08817 5.59473C1.51506 5.59473 1.76619 5.34361 1.76619 4.90834V2.92453C1.76619 2.05399 2.22656 1.61035 3.06361 1.61035H17.5111C18.3315 1.61035 18.8086 2.05399 18.8086 2.92453V4.90834C18.8086 5.34361 19.0514 5.59473 19.4782 5.59473C19.9219 5.59473 20.1563 5.34361 20.1563 4.90834V2.85756C20.1563 1.13323 19.2857 0.262695 17.5279 0.262695H3.03851ZM1.08817 8.84253C1.69085 8.84253 2.17634 8.34867 2.17634 7.74595C2.17634 7.15165 1.69085 6.66615 1.08817 6.66615C0.493861 6.66615 0 7.15165 0 7.74595C0 8.34867 0.493861 8.84253 1.08817 8.84253ZM19.4782 8.84253C20.0726 8.84253 20.5664 8.34867 20.5664 7.74595C20.5664 7.15165 20.0726 6.66615 19.4782 6.66615C18.8756 6.66615 18.3901 7.14328 18.3901 7.74595C18.3901 8.34867 18.8756 8.84253 19.4782 8.84253ZM7.54186 11.8977C7.84321 11.8977 8.05243 11.7555 8.178 11.362L8.78907 9.5791H11.7857L12.3968 11.362C12.5223 11.7471 12.7399 11.8977 13.0413 11.8977C13.4096 11.8977 13.6607 11.655 13.6607 11.3202C13.6607 11.1862 13.6356 11.069 13.5686 10.8849L11.2249 4.56515C11.0575 4.12988 10.7394 3.90388 10.279 3.90388C9.827 3.90388 9.51729 4.12988 9.35829 4.56515L7.00614 10.8849C6.94754 11.069 6.91406 11.1862 6.91406 11.3118C6.91406 11.6634 7.16514 11.8977 7.54186 11.8977ZM9.13229 8.57467L10.2456 5.33524H10.3376L11.4509 8.57467H9.13229Z" fill="#BBC0C5"/>
</svg>
