<svg width="24" height="24" viewBox="0 0 24 24" fill="none" xmlns="http://www.w3.org/2000/svg">
<g clip-path="url(#clip0_135_8039)">
<rect width="24" height="24" rx="12" fill="#D34C46"/>
<rect x="8.42859" y="2.14289" width="6.66665" height="18.3333" rx="3.33332" fill="white"/>
<path d="M3.3803 21.2053H20.6794C22.5767 21.2053 23.7262 19.8883 23.7262 18.1807C23.7262 17.6563 23.5699 17.1093 23.291 16.6183L14.6303 1.52904C14.0499 0.513414 13.0566 2.28882e-05 12.0298 2.28882e-05C11.003 2.28882e-05 9.99855 0.513414 9.42939 1.52904L0.768702 16.6183C0.467363 17.1205 0.333435 17.6563 0.333435 18.1807C0.333435 19.8883 1.48298 21.2053 3.3803 21.2053ZM12.041 13.75C11.4606 13.75 11.137 13.4151 11.1258 12.8236L10.9807 6.75223C10.9696 6.16072 11.4048 5.73662 12.0298 5.73662C12.6325 5.73662 13.1012 6.17188 13.0901 6.76339L12.9227 12.8236C12.9115 13.4264 12.5879 13.75 12.041 13.75ZM12.041 17.4888C11.3713 17.4888 10.791 16.9531 10.791 16.2946C10.791 15.6249 11.3602 15.0893 12.041 15.0893C12.7106 15.0893 13.2799 15.6138 13.2799 16.2946C13.2799 16.9643 12.6995 17.4888 12.041 17.4888Z" fill="#D34C46"/>
</g>
<defs>
<clipPath id="clip0_135_8039">
<rect width="24" height="24" rx="12" fill="white"/>
</clipPath>
</defs>
</svg>
