<svg width="24" height="24" viewBox="0 0 24 24" fill="none" xmlns="http://www.w3.org/2000/svg">
<g clip-path="url(#clip0_135_7995)">
<rect width="24" height="24" rx="12" fill="#579F6E"/>
<rect x="3" y="2.99999" width="18" height="18" rx="9.00002" fill="white"/>
<path d="M11.9599 22.2053C17.5648 22.2053 22.2054 17.5547 22.2054 11.9598C22.2054 6.35491 17.5548 1.71427 11.9499 1.71427C6.35499 1.71427 1.71436 6.35491 1.71436 11.9598C1.71436 17.5547 6.36504 22.2053 11.9599 22.2053ZM10.8349 16.8717C10.4934 16.8717 10.2121 16.731 9.95099 16.3795L7.42977 13.2857C7.2791 13.0848 7.1887 12.8638 7.1887 12.6328C7.1887 12.1808 7.54027 11.8091 7.99227 11.8091C8.28357 11.8091 8.50455 11.8996 8.75566 12.231L10.7948 14.8627L15.0838 7.9721C15.2746 7.67076 15.5358 7.51005 15.797 7.51005C16.2389 7.51005 16.6508 7.81138 16.6508 8.28348C16.6508 8.50447 16.5202 8.7355 16.3996 8.94643L11.6787 16.3795C11.4677 16.711 11.1765 16.8717 10.8349 16.8717Z" fill="#579F6E"/>
</g>
<defs>
<clipPath id="clip0_135_7995">
<rect width="24" height="24" rx="12" fill="white"/>
</clipPath>
</defs>
</svg>
