<svg width="20" height="18" viewBox="0 0 20 18" fill="none" xmlns="http://www.w3.org/2000/svg">
  <path d="M0.744416 1.91819H19.2357C19.6526 1.91819 20 1.59065 20 1.16385C20 0.746977 19.6526 0.419434 19.2357 0.419434H0.744416C0.327543 0.419434 0 0.746977 0 1.16385C0 1.59065 0.327543 1.91819 0.744416 1.91819ZM0.744416 7.11918H19.2357C19.6526 7.11918 20 6.79164 20 6.36484C20 5.94796 19.6526 5.62042 19.2357 5.62042H0.744416C0.327543 5.62042 0 5.94796 0 6.36484C0 6.79164 0.327543 7.11918 0.744416 7.11918ZM0.744416 12.3202H19.2357C19.6526 12.3202 20 11.9827 20 11.5659C20 11.149 19.6526 10.8214 19.2357 10.8214H0.744416C0.327543 10.8214 0 11.149 0 11.5659C0 11.9827 0.327543 12.3202 0.744416 12.3202ZM0.744416 17.5112H11.3648C11.7817 17.5112 12.1191 17.1837 12.1191 16.7668C12.1191 16.3499 11.7817 16.0125 11.3648 16.0125H0.744416C0.327543 16.0125 0 16.3499 0 16.7668C0 17.1837 0.327543 17.5112 0.744416 17.5112Z" fill="#BBC0C5"/>
</svg>
