<svg width="32" height="32" viewBox="0 0 32 32" fill="none" xmlns="http://www.w3.org/2000/svg">
<rect width="32" height="32" rx="16" fill="#037DD6" fill-opacity="0.1"/>
<path d="M18.6925 16.3V19.3525C18.6925 19.6225 18.6625 19.8775 18.595 20.11C18.3175 21.2125 17.4025 21.9025 16.1425 21.9025H14.1025L11.8375 23.41C11.5 23.6425 11.05 23.395 11.05 22.99V21.9025C10.285 21.9025 9.6475 21.6475 9.205 21.205C8.755 20.755 8.5 20.1175 8.5 19.3525V16.3C8.5 14.875 9.385 13.8925 10.75 13.765C10.8475 13.7575 10.945 13.75 11.05 13.75H16.1425C17.6725 13.75 18.6925 14.77 18.6925 16.3Z" fill="#0376C9"/>
<path d="M20.3125 18.7C21.265 18.7 22.0675 18.385 22.6225 17.8225C23.185 17.2675 23.5 16.465 23.5 15.5125V11.6875C23.5 9.925 22.075 8.5 20.3125 8.5H13.9375C12.175 8.5 10.75 9.925 10.75 11.6875V12.25C10.75 12.46 10.915 12.625 11.125 12.625H16.1425C18.175 12.625 19.8175 14.2675 19.8175 16.3V18.325C19.8175 18.535 19.9825 18.7 20.1925 18.7H20.3125Z" fill="#0376C9"/>
</svg>
