<svg width="24" height="25" viewBox="0 0 24 25" fill="none" xmlns="http://www.w3.org/2000/svg">
  <g opacity="0.5">
    <rect y="0.103027" width="24" height="24" rx="12" fill="#037DD6" fill-opacity="0.1"/>
    <path d="M6.76744 10.5507C6.76569 10.5507 6.76131 10.5501 6.75594 10.5448C6.75057 10.5394 6.75 10.535 6.75 10.5333V9.22512C6.75 7.91525 7.81653 6.85303 9.12209 6.85303H10.4302C10.432 6.85303 10.4364 6.85359 10.4417 6.85896C10.4471 6.86433 10.4477 6.86872 10.4477 6.87047C10.4477 6.87222 10.4471 6.87661 10.4417 6.88198C10.4364 6.88735 10.432 6.88791 10.4302 6.88791H9.12209C7.83185 6.88791 6.78488 7.93487 6.78488 9.22512V10.5333C6.78488 10.535 6.78432 10.5394 6.77895 10.5448C6.77358 10.5501 6.76919 10.5507 6.76744 10.5507ZM17.2326 10.5507C17.2308 10.5507 17.2264 10.5501 17.2211 10.5448C17.2157 10.5394 17.2151 10.535 17.2151 10.5333V9.22512C17.2151 7.93487 16.1682 6.88791 14.8779 6.88791H13.5698C13.568 6.88791 13.5636 6.88735 13.5583 6.88198C13.5529 6.87661 13.5523 6.87222 13.5523 6.87047C13.5523 6.86872 13.5529 6.86433 13.5583 6.85896C13.5636 6.85359 13.568 6.85303 13.5698 6.85303H14.8779C16.1835 6.85303 17.25 7.91525 17.25 9.22512V10.5333C17.25 10.535 17.2494 10.5394 17.2441 10.5448C17.2387 10.5501 17.2343 10.5507 17.2326 10.5507ZM14.8779 17.353H14.093C14.0913 17.353 14.0869 17.3525 14.0815 17.3471C14.0761 17.3417 14.0756 17.3373 14.0756 17.3356C14.0756 17.3338 14.0761 17.3294 14.0815 17.3241C14.0869 17.3187 14.0913 17.3181 14.093 17.3181H14.8779C16.1682 17.3181 17.2151 16.2712 17.2151 14.9809V14.1961C17.2151 14.1943 17.2157 14.1899 17.2211 14.1845C17.2264 14.1792 17.2308 14.1786 17.2326 14.1786C17.2343 14.1786 17.2387 14.1792 17.2441 14.1845C17.2494 14.1899 17.25 14.1943 17.25 14.1961V14.9809C17.25 16.2908 16.1835 17.353 14.8779 17.353ZM10.4302 17.353H9.12209C7.81653 17.353 6.75 16.2908 6.75 14.9809V13.6728C6.75 13.671 6.75057 13.6667 6.75594 13.6613C6.76131 13.6559 6.76569 13.6554 6.76744 13.6554C6.76919 13.6554 6.77358 13.6559 6.77895 13.6613C6.78432 13.6667 6.78488 13.671 6.78488 13.6728V14.9809C6.78488 16.2712 7.83185 17.3181 9.12209 17.3181H10.4302C10.432 17.3181 10.4364 17.3187 10.4417 17.3241C10.4471 17.3294 10.4477 17.3338 10.4477 17.3356C10.4477 17.3373 10.4471 17.3417 10.4417 17.3471C10.4364 17.3525 10.432 17.353 10.4302 17.353ZM9.38372 8.94605H10.4302C10.6658 8.94605 10.7853 9.00738 10.8472 9.06897C10.9087 9.13029 10.9709 9.24933 10.9709 9.48675V10.5333C10.9709 10.7707 10.9087 10.8897 10.8472 10.951C10.7853 11.0126 10.6658 11.074 10.4302 11.074H9.38372C9.14812 11.074 9.02864 11.0126 8.96678 10.951C8.90521 10.8897 8.84302 10.7707 8.84302 10.5333V9.48675C8.84302 9.24933 8.90521 9.13029 8.96678 9.06897C9.02864 9.00738 9.14812 8.94605 9.38372 8.94605ZM13.5698 8.94605H14.6163C14.8519 8.94605 14.9714 9.00738 15.0332 9.06897C15.0948 9.13029 15.157 9.24933 15.157 9.48675V10.5333C15.157 10.7707 15.0948 10.8897 15.0332 10.951C14.9714 11.0126 14.8519 11.074 14.6163 11.074H13.5698C13.3342 11.074 13.2147 11.0126 13.1528 10.951C13.0913 10.8897 13.0291 10.7707 13.0291 10.5333V9.48675C13.0291 9.24933 13.0913 9.13029 13.1528 9.06897C13.2147 9.00738 13.3342 8.94605 13.5698 8.94605ZM9.38372 13.1321H10.4302C10.6658 13.1321 10.7853 13.1934 10.8472 13.255C10.9087 13.3163 10.9709 13.4354 10.9709 13.6728V14.7193C10.9709 14.9567 10.9087 15.0758 10.8472 15.1371C10.7853 15.1987 10.6658 15.26 10.4302 15.26H9.38372C9.14812 15.26 9.02864 15.1987 8.96678 15.1371C8.90521 15.0758 8.84302 14.9567 8.84302 14.7193V13.6728C8.84302 13.4354 8.90521 13.3163 8.96678 13.255C9.02864 13.1934 9.14812 13.1321 9.38372 13.1321ZM13.5698 13.1321H14.6163C14.8519 13.1321 14.9714 13.1934 15.0332 13.255C15.0948 13.3163 15.157 13.4354 15.157 13.6728V14.7193C15.157 14.9567 15.0948 15.0758 15.0332 15.1371C14.9714 15.1987 14.8519 15.26 14.6163 15.26H13.5698C13.3342 15.26 13.2147 15.1987 13.1528 15.1371C13.0913 15.0758 13.0291 14.9567 13.0291 14.7193V13.6728C13.0291 13.4354 13.0913 13.3163 13.1528 13.255C13.2147 13.1934 13.3342 13.1321 13.5698 13.1321Z" fill="#0376C9" stroke="#037DD6" stroke-width="0.75"/>
  </g>
</svg>
